<svg width="98" height="29" viewBox="0 0 98 29" fill="none" xmlns="http://www.w3.org/2000/svg">
<path fill-rule="evenodd" clip-rule="evenodd" d="M60.7943 22.6794C55.1206 26.803 46.868 29 39.7501 29C29.7782 29 20.8378 25.3834 14.0294 19.3671C13.5136 18.8939 13.9606 18.2517 14.614 18.6235C21.9382 22.8146 30.9817 25.3158 40.3347 25.3158C46.6273 25.3158 53.5733 24.0314 59.9691 21.3613C60.9319 20.9895 61.7227 22.0034 60.7943 22.6794Z" fill="#3C2008"/>
<path fill-rule="evenodd" clip-rule="evenodd" d="M63.1672 20.0093C62.4451 19.0967 58.3532 19.5699 56.5307 19.8065C55.9805 19.8741 55.8774 19.4009 56.3932 19.0629C59.6598 16.7984 64.9897 17.4743 65.6086 18.2179C66.2275 18.9615 65.4367 24.2343 62.3763 26.7354C61.8949 27.1072 61.4479 26.9044 61.6542 26.3974C62.3419 24.7074 63.8893 20.9557 63.1672 20.0093Z" fill="#3C2008"/>
<path fill-rule="evenodd" clip-rule="evenodd" d="M56.6337 3.17716V0.980186C56.6337 0.642191 56.8744 0.439394 57.1839 0.439394H67.1558C67.4653 0.439394 67.7403 0.675991 67.7403 0.980186V2.83916C67.7403 3.14336 67.4653 3.54895 66.9839 4.22494L61.826 11.458C63.7516 11.4242 65.7803 11.6946 67.4996 12.641C67.8779 12.8438 67.9811 13.1818 68.0154 13.486V15.8182C68.0154 16.1562 67.6716 16.528 67.2933 16.3252C64.233 14.7366 60.1411 14.5676 56.7712 16.359C56.4274 16.528 56.0491 16.19 56.0491 15.852V13.6212C56.0491 13.2832 56.0491 12.6748 56.4274 12.134L62.4105 3.71795H57.2182C56.9088 3.71795 56.6337 3.48135 56.6337 3.17716ZM20.2877 16.7984H17.2618C16.9867 16.7646 16.746 16.5618 16.7116 16.2914V1.01399C16.7116 0.70979 16.9867 0.473193 17.2961 0.473193H20.1158C20.4253 0.473193 20.6316 0.70979 20.666 0.980186V2.97436H20.7347C21.4568 1.04779 22.8667 0.135198 24.7235 0.135198C26.6147 0.135198 27.8182 1.04779 28.6435 2.97436C29.3656 1.04779 31.0505 0.135198 32.8386 0.135198C34.1109 0.135198 35.4863 0.642191 36.346 1.82517C37.3088 3.10956 37.1025 4.96853 37.1025 6.62471V16.2914C37.1025 16.5956 36.8274 16.8322 36.5179 16.8322H33.5263C33.2168 16.7984 32.9761 16.5618 32.9761 16.2914V8.17949C32.9761 7.5373 33.0449 5.91492 32.9074 5.30653C32.6667 4.29254 32.0133 3.98834 31.1193 3.98834C30.3972 3.98834 29.6063 4.46154 29.2968 5.23893C28.9874 6.01632 29.0218 7.3007 29.0218 8.17949V16.2914C29.0218 16.5956 28.7467 16.8322 28.4372 16.8322H25.4112C25.1018 16.7984 24.8611 16.5618 24.8611 16.2914V8.17949C24.8611 6.48951 25.1361 3.95454 23.0042 3.95454C20.8379 3.95454 20.9067 6.38811 20.9067 8.17949V16.2914C20.8723 16.5618 20.6316 16.7984 20.2877 16.7984ZM76.3368 0.135198C80.8414 0.135198 83.2828 3.92075 83.2828 8.75408C83.2828 13.4184 80.6007 17.1364 76.3368 17.1364C71.9354 17.1364 69.5284 13.3508 69.5284 8.61888C69.494 3.85315 71.9354 0.135198 76.3368 0.135198ZM76.3368 3.27855C74.1018 3.27855 73.9642 6.28671 73.9642 8.14569C73.9642 10.0047 73.9298 13.993 76.3025 13.993C78.6407 13.993 78.7782 10.7821 78.7782 8.82168C78.7782 7.5373 78.7095 5.98252 78.3312 4.76573C77.9874 3.68415 77.2996 3.27855 76.3368 3.27855ZM89.094 16.7984H86.0681C85.7586 16.7646 85.5179 16.528 85.5179 16.2576V0.946387C85.5523 0.675991 85.793 0.439394 86.1025 0.439394H88.9221C89.1972 0.439394 89.4035 0.642191 89.4723 0.878788V3.21096H89.541C90.4007 1.11538 91.5698 0.135198 93.6674 0.135198C95.0084 0.135198 96.3495 0.608391 97.2091 1.92657C98 3.14336 98 5.20513 98 6.69231V16.3252C97.9656 16.5956 97.7249 16.7984 97.4154 16.7984H94.3895C94.1144 16.7646 93.8737 16.5618 93.8393 16.3252V8.01049C93.8393 6.32051 94.0456 3.88695 91.9481 3.88695C91.226 3.88695 90.5382 4.36014 90.1944 5.10373C89.7817 6.05012 89.713 6.9627 89.713 8.01049V16.2576C89.6786 16.5618 89.4035 16.7984 89.094 16.7984ZM48.6905 9.49767C48.6905 10.6469 48.7249 11.627 48.1404 12.6748C47.6589 13.5198 46.9025 14.0268 46.0428 14.0268C44.8737 14.0268 44.186 13.148 44.186 11.8636C44.186 9.32867 46.4898 8.85548 48.6905 8.85548V9.49767ZM51.7509 16.7646C51.5446 16.9336 51.2695 16.9674 51.0288 16.8322C50.0316 16.021 49.8253 15.6154 49.2751 14.838C47.6246 16.4942 46.4211 17.0012 44.2891 17.0012C41.7446 17.0012 39.7502 15.4464 39.7502 12.3706C39.7502 9.93706 41.0912 8.31468 42.9825 7.5035C44.633 6.79371 46.9368 6.65851 48.6905 6.45571V6.08392C48.6905 5.37413 48.7593 4.52914 48.3123 3.92075C47.934 3.37995 47.2463 3.14336 46.6274 3.14336C45.4582 3.14336 44.4267 3.71795 44.186 4.93473C44.1172 5.20513 43.9453 5.47552 43.6702 5.47552L40.7474 5.17133C40.5067 5.10373 40.2316 4.93473 40.3004 4.56294C40.9881 1.04779 44.186 0 47.0744 0C48.553 0 50.4786 0.371795 51.6477 1.48718C53.1263 2.83916 52.9888 4.66434 52.9888 6.62471V11.2552C52.9888 12.641 53.5733 13.2494 54.1235 14.0268C54.3298 14.2972 54.3642 14.6352 54.1235 14.8042C53.4702 15.3112 52.3698 16.2576 51.7509 16.7646ZM8.97474 9.49767C8.97474 10.6469 9.00912 11.627 8.42456 12.6748C7.94316 13.5198 7.18667 14.0268 6.32702 14.0268C5.15789 14.0268 4.47018 13.148 4.47018 11.8636C4.47018 9.32867 6.77403 8.85548 8.97474 8.85548V9.49767ZM12.0007 16.7646C11.7944 16.9336 11.5193 16.9674 11.2786 16.8322C10.2814 16.021 10.0751 15.6154 9.52491 14.838C7.87439 16.4942 6.67088 17.0012 4.53895 17.0012C1.99439 17.0012 0 15.4464 0 12.3706C0 9.93706 1.34105 8.31468 3.23228 7.5035C4.88281 6.79371 7.18667 6.65851 8.94035 6.45571V6.08392C8.94035 5.37413 9.00912 4.52914 8.56211 3.92075C8.18386 3.37995 7.49614 3.14336 6.87719 3.14336C5.70807 3.14336 4.67649 3.71795 4.43579 4.93473C4.36702 5.20513 4.19509 5.47552 3.92 5.47552L0.997193 5.17133C0.756491 5.10373 0.481403 4.93473 0.550175 4.56294C1.23789 1.04779 4.43579 0 7.32421 0C8.80281 0 10.7284 0.371795 11.8975 1.48718C13.3761 2.83916 13.2386 4.66434 13.2386 6.62471V11.2552C13.2386 12.641 13.8232 13.2494 14.3733 14.0268C14.5796 14.2972 14.614 14.6352 14.3733 14.8042C13.72 15.3112 12.6196 16.2576 12.0007 16.7646Z" fill="#3C2008"/>
</svg>
