<svg width="85" height="68" viewBox="0 0 85 68" fill="none" xmlns="http://www.w3.org/2000/svg">
<g clip-path="url(#clip0)">
<path d="M17.2993 63.0943C16.1974 63.0943 15.3926 63.6484 15.3926 64.7088C15.3926 65.702 16.0922 66.3943 17.1421 66.3943C17.8423 66.3943 18.5425 66.0063 18.9795 65.4515V64.0371C18.9795 63.5654 18.3666 63.0943 17.2993 63.0943ZM41.1162 62.8983C41.1682 64.7599 42.3587 66.1066 44.4059 66.1066C45.6491 66.1066 46.5944 65.4349 46.9262 65.013C47.0834 65.1313 47.242 65.308 47.242 65.7193C47.242 66.6454 46.1214 67.9263 43.5139 67.9263C40.8897 67.9263 38.7532 65.8395 38.7532 63.1116C38.7532 60.108 40.7311 57.9614 43.6545 57.9614C46.312 57.9614 47.5385 59.9133 47.5385 61.5756C47.5385 62.0659 47.4332 62.5196 47.2227 62.8983H41.1162ZM44.827 61.6951C45.2467 61.6951 45.2647 61.45 45.2647 61.1218C45.2467 60.1425 44.4752 59.2356 43.304 59.2356C41.7818 59.2356 41.1862 60.5079 41.1342 61.6951H44.827ZM69.5173 62.7223C69.5173 64.9971 69.8337 66.1564 71.3047 66.1564C72.9116 66.1564 73.3513 64.7254 73.3513 63.4252V60.9437C73.3513 60.0913 72.9463 59.7605 72.0202 59.8601C71.6358 58.9021 72.9116 58.2922 73.6318 58.152C73.857 58.1175 74.0681 58.0829 74.2627 58.0829C75.276 58.0829 75.665 58.7134 75.665 59.6555C75.665 60.0017 75.6311 60.6328 75.6311 63.2438C75.6311 64.348 75.6131 64.9306 75.6131 65.1133C75.6131 65.9731 76.0122 66.4109 76.9375 66.3106C77.3166 67.2706 76.0488 67.7257 75.3253 67.8592C75.1035 67.8924 74.9016 67.9263 74.735 67.9263C73.773 67.9263 73.5778 67.3038 73.384 66.4115C73.2481 66.579 73.1228 66.7158 72.8617 66.967C72.2314 67.5556 71.4093 67.9097 70.4806 67.9097C69.4653 67.9097 68.6079 67.521 68.065 66.8832C67.2256 65.89 67.2256 64.6098 67.2256 62.7402V60.9444C67.2256 60.092 66.8225 59.7612 65.8958 59.8608C65.5107 58.9028 66.7892 58.2929 67.506 58.1527C67.7332 58.1182 67.9424 58.0836 68.1356 58.0836C69.1496 58.0836 69.5353 58.7141 69.5353 59.6562L69.5173 62.7223H69.5173ZM65.091 62.9176C65.091 59.9664 63.0438 57.9607 60.2084 57.9607C57.5842 57.9607 55.2558 59.9664 55.2558 62.9176C55.2558 65.9059 57.443 67.909 60.1211 67.909C62.9551 67.909 65.091 65.8727 65.091 62.9176ZM21.1673 65.518C21.1673 66.2707 21.6563 66.5105 22.5144 66.6288C22.4618 67.5031 21.8488 67.8419 21.132 67.909C20.3266 67.9761 19.5391 67.6041 19.2247 66.7657C18.8562 67.0992 17.7717 67.9423 16.354 67.9423C14.412 67.9423 12.959 66.6447 12.959 64.8775C12.959 63.0093 14.5865 61.9024 16.8789 61.9024C17.6677 61.9024 18.4885 62.0659 18.9788 62.319V61.068C18.9788 59.9472 18.4885 59.2356 17.2121 59.2356C16.9489 59.2356 16.372 59.3047 15.9163 59.4775C15.9689 59.6549 16.0049 59.8442 16.0049 60.0183C16.0049 60.7026 15.5672 61.2573 14.8324 61.2573C14.1841 61.2573 13.6938 60.7365 13.6938 60.0714C13.6938 58.8496 15.2347 57.96 17.3699 57.96C19.0674 57.96 20.1007 58.3613 20.643 59.0582C21.132 59.6715 21.1673 60.6142 21.1673 61.9748V65.518ZM62.5887 63.0611C62.5887 65.3286 61.6081 66.561 60.2264 66.561C59.0012 66.561 57.8114 65.3293 57.8114 62.6399C57.8114 60.5444 58.6861 59.2363 60.1211 59.2363C61.5381 59.2358 62.5887 60.686 62.5887 63.0611ZM28.0965 59.619C28.1492 60.2143 28.6568 60.6315 29.2511 60.6315C30.0039 60.6315 30.4589 59.9658 30.4589 59.3213C30.4589 58.4131 29.7241 57.9428 28.9886 57.9428C28.1492 57.9428 27.2565 58.5719 26.7495 59.5127L26.7142 59.53C26.5569 58.6942 26.1539 58.0637 25.3138 58.0637C25.1213 58.0637 24.9114 58.0995 24.6842 58.1686C23.984 58.3779 22.9514 58.9174 23.3372 59.8768C24.3171 59.6887 24.6669 60.0176 24.6669 60.87V64.9286C24.6669 65.7345 24.5623 66.072 24.2818 66.3086C24.0187 66.5092 23.7395 66.5922 23.5643 66.6268C23.1619 67.5011 23.9494 67.7735 25.8921 67.7735C27.8347 67.7735 28.4996 67.5018 28.0972 66.6268C27.922 66.5916 27.4323 66.5085 27.1698 66.3086C26.8894 66.072 26.7675 65.7345 26.7675 64.9286V62.4804C26.7669 60.298 27.5716 59.7239 28.0965 59.619V59.619ZM52.1766 58.2039H54.6789C54.9767 58.9181 54.5743 59.4941 54.014 59.5472C53.8388 59.5658 53.6462 59.5658 53.4717 59.5658C53.016 59.5658 52.5617 59.5299 52.2465 59.5299V64.9293C52.2465 65.7352 52.3864 66.0727 52.6662 66.3092C52.9294 66.5099 53.5423 66.5929 53.7175 66.6274C54.1199 67.5018 53.1739 67.7742 51.2319 67.7742C49.2899 67.7742 48.4851 67.5024 48.8869 66.6274C49.0614 66.5922 49.3425 66.5092 49.6044 66.3092C49.8842 66.0727 49.9888 65.7352 49.9888 64.9293V59.4934L48.5191 59.4416C48.2213 58.7287 48.6237 58.2211 49.2186 58.2211H49.9548V57.5229C49.9548 56.1091 50.2166 55.3231 50.567 54.7996C51.1087 53.9618 52.0367 53.3865 53.4883 53.3865C55.3264 53.3865 56.8134 54.2415 56.8134 55.5324C56.8134 56.0911 56.4283 56.7715 55.6235 56.7715C55.0293 56.7715 54.469 56.2652 54.469 55.638C54.469 55.3749 54.5743 55.0959 54.7135 54.9225C54.5043 54.678 54.0666 54.5551 53.6462 54.5551C52.4384 54.5551 52.1766 55.4454 52.1766 56.5622V58.2039V58.2039ZM36.059 59.619C36.1117 60.2143 36.6193 60.6315 37.2142 60.6315C37.9671 60.6315 38.4214 59.9658 38.4214 59.3213C38.4214 58.4131 37.6866 57.9428 36.9518 57.9428C36.1117 57.9428 35.219 58.5719 34.7126 59.5127L34.6767 59.5299C34.5201 58.6942 34.117 58.0637 33.277 58.0637C33.0851 58.0637 32.8746 58.0995 32.6474 58.1686C31.9465 58.3779 30.9139 58.9174 31.2997 59.8767C32.2796 59.6887 32.6287 60.0176 32.6287 60.87V64.9286C32.6287 65.7345 32.5248 66.072 32.2443 66.3085C31.9819 66.5092 31.7027 66.5922 31.5282 66.6268C31.1251 67.5011 31.9132 67.7735 33.8546 67.7735C35.7966 67.7735 36.4628 67.5018 36.0597 66.6268C35.8852 66.5916 35.3955 66.5085 35.1323 66.3085C34.8525 66.072 34.73 65.7345 34.73 64.9286V62.4804C34.7294 60.298 35.5341 59.7239 36.059 59.619V59.619ZM82.6349 59.619C82.6935 60.2142 83.2052 60.6315 83.8028 60.6315C84.5449 60.6315 84.9999 59.9658 84.9999 59.3213C84.9999 58.4131 84.2758 57.9428 83.5303 57.9428C82.6935 57.9428 81.8108 58.5719 81.3051 59.5127L81.2539 59.5299C81.1006 58.6941 80.6942 58.0636 79.8695 58.0636C79.6643 58.0636 79.4651 58.0995 79.2253 58.1686C78.5351 58.3779 77.5058 58.9174 77.8808 59.8767C78.8642 59.6887 79.2086 60.0176 79.2086 60.87V64.9286C79.2086 65.7345 79.108 66.072 78.8189 66.3085C78.5677 66.5092 78.2792 66.5922 78.112 66.6268C77.7056 67.5011 78.5004 67.7735 80.4417 67.7735C82.3837 67.7735 83.0406 67.5017 82.6342 66.6268C82.4677 66.5915 81.978 66.5085 81.7055 66.3085C81.439 66.072 81.3211 65.7345 81.3211 64.9286V62.4804C81.3218 60.2979 82.1126 59.7239 82.6349 59.6189" fill="#3C2008"/>
<path d="M0 60.9875C0 65.3916 3.0439 67.9999 6.35162 67.9999C9.3269 67.9999 11.4088 65.9138 11.4088 64.1771C11.4088 63.2523 10.8319 62.58 10.079 62.58C9.30891 62.58 8.66202 63.1009 8.66202 63.9958C8.66202 64.5671 8.97647 64.8867 9.20432 65.1385C8.80126 65.9145 7.94385 66.5529 6.61344 66.5529C4.40896 66.5529 2.81672 64.2629 2.81672 60.9696C2.81672 57.6723 4.33834 55.3683 6.54415 55.3683C7.87457 55.3683 8.73131 56.014 9.13437 56.7827C8.90652 57.0438 8.59207 57.358 8.59207 57.9341C8.59207 58.8243 9.23962 59.3472 10.0098 59.3472C10.7626 59.3472 11.3388 58.6688 11.3388 57.7421C11.3388 56.0134 9.25695 53.9199 6.28167 53.9199C2.97328 53.9194 0 56.782 0 60.9875Z" fill="#3C2008"/>
<path d="M28.6632 1.51667L10.0953 19.4302C9.16794 20.2155 8.57568 21.1376 8.57568 22.4571C8.57568 23.7705 9.16861 24.696 10.0953 25.4873L28.6632 43.3948C28.7824 43.5164 28.8977 43.5649 28.9956 43.5649C29.1715 43.5649 29.2927 43.4055 29.2874 43.2181C29.2821 43.1078 29.2341 42.9809 29.1242 42.8713C24.7659 37.4713 21.5947 31.278 21.5947 22.5222C21.5947 13.7611 24.7659 7.4462 29.1242 2.04219C29.2341 1.93389 29.2821 1.80899 29.2874 1.69605C29.2934 1.50471 29.1715 1.34991 28.9956 1.34991C28.8977 1.34802 28.7824 1.39575 28.6632 1.51667Z" fill="#3C2008"/>
<path d="M42.9377 0C35.6674 0 32.8267 10.2745 32.8267 22.5209C32.8267 34.7713 35.6674 44.909 42.9377 44.909C47.3007 44.909 51.0194 42.3612 51.0314 40.267C51.0333 39.8086 50.8562 39.3695 50.4705 38.9861C48.4026 36.9937 47.5938 35.0025 47.5878 33.2453C47.5745 29.8909 50.4925 27.3921 53.1826 27.3921C56.8807 27.3921 59.0619 30.2908 59.0619 34.0445C59.0619 37.6016 57.5423 40.564 55.8887 42.9365C55.8235 43.0335 55.7941 43.1418 55.7941 43.2368C55.7955 43.4228 55.9054 43.5756 56.07 43.5756C56.1699 43.5756 56.2871 43.5225 56.415 43.3943L74.9876 25.4867C75.9149 24.6961 76.5072 23.77 76.5072 22.4565C76.5072 21.1377 75.9143 20.2149 74.9876 19.4296L56.415 1.5161C56.2878 1.38921 56.1705 1.33539 56.07 1.33539C55.9041 1.33539 55.7955 1.48952 55.7941 1.67622C55.7941 1.77188 55.8234 1.87885 55.8887 1.97718C57.5416 4.34634 59.0619 7.3121 59.0619 10.8665C59.0619 14.6176 56.8807 17.5189 53.1826 17.5189C50.4925 17.5189 47.5745 15.0222 47.5878 11.6671C47.5938 9.9098 48.4026 7.91668 50.4705 5.92622C50.8562 5.54088 51.0334 5.10571 51.0314 4.64663C51.0194 2.5492 47.3007 0 42.9377 0Z" fill="#3C2008"/>
</g>
<defs>
<clipPath id="clip0">
<rect width="85" height="68" fill="white"/>
</clipPath>
</defs>
</svg>
