<svg width="61" height="58" viewBox="0 0 61 58" fill="none" xmlns="http://www.w3.org/2000/svg">
<path d="M3.10867 27.1333V27.2374C3.10867 27.7282 3.36519 27.8843 3.59839 27.8843C3.83159 27.8843 4.11921 27.7282 4.11921 27.2969C4.11921 26.4938 2.81328 26.5533 2.81328 25.4974C2.81328 24.8579 3.17863 24.5159 3.66835 24.5159C4.15808 24.5159 4.50011 24.8356 4.44569 25.5718H4.05702C4.05702 25.1777 3.95597 24.9174 3.60617 24.9174C3.38851 24.9174 3.16308 25.0587 3.16308 25.4528C3.16308 26.2484 4.46901 26.1295 4.46901 27.2746C4.46901 28.0182 4.04148 28.2859 3.5673 28.2859C2.70445 28.2859 2.70445 27.4754 2.71223 27.1333H3.10867Z" fill="#163F31"/>
<path d="M5.44978 24.5901H5.07666V28.2039H5.44978V24.5901Z" fill="#163F31"/>
<path d="M8.16234 24.5901V28.2115H7.65707L6.50662 25.0734H6.49884V28.2115H6.17236V24.5901H6.69318L7.82809 27.691H7.83586V24.5901H8.16234Z" fill="#163F31"/>
<path d="M10.1057 25.5866C10.1233 25.409 10.0939 25.23 10.0202 25.0661C9.98196 25.0178 9.93263 24.9786 9.876 24.9516C9.81938 24.9245 9.757 24.9103 9.6937 24.91C9.59829 24.9071 9.50432 24.9328 9.4249 24.9834C9.34547 25.0341 9.28455 25.1072 9.25062 25.1925C9.16821 25.432 9.13908 25.6853 9.16511 25.9361V26.9028C9.16511 27.7876 9.40609 27.8917 9.68593 27.8917C9.80253 27.8917 10.1446 27.8397 10.1446 27.1482H10.5332C10.5332 28.2933 9.89581 28.2933 9.70925 28.2933C9.3439 28.2933 8.79199 28.2933 8.79199 26.8582V25.832C8.79199 24.8059 9.14956 24.5159 9.72479 24.5159C10.3 24.5159 10.5021 24.8877 10.5021 25.5866H10.1057Z" fill="#163F31"/>
<path d="M33.2154 3.41267C32.6783 3.59024 32.2124 3.92334 31.8823 4.36573C31.5522 4.80812 31.3742 5.33784 31.3731 5.88138C31.3937 6.48403 31.6142 7.06479 32.0027 7.53958L32.5391 8.23856C32.8238 8.61096 33.0141 9.04161 33.0948 9.49648C33.1756 9.95134 33.1446 10.4179 33.0044 10.8594C32.8641 11.3008 32.6184 11.705 32.2867 12.04C31.9551 12.3749 31.5465 12.6315 31.0933 12.7893L28.4504 12.1275L29.2976 11.3839C29.5156 11.1968 29.6894 10.9674 29.8074 10.7109C29.9253 10.4545 29.9847 10.1769 29.9817 9.89676C29.9833 9.41302 29.801 8.94522 29.4687 8.58061L29.0567 8.13446C28.74 7.78905 28.5065 7.38134 28.3727 6.94014C28.2388 6.49893 28.2079 6.03499 28.282 5.58109C28.3561 5.12719 28.5336 4.69439 28.8017 4.31328C29.0699 3.93217 29.4223 3.61203 29.834 3.37549L33.2154 3.41267Z" fill="#163F31"/>
<path d="M23.5454 9.1087C23.5469 9.48435 23.4318 9.85197 23.2145 10.1649C22.9973 10.4779 22.6878 10.7221 22.3253 10.8665C21.9628 11.0109 21.5636 11.0491 21.1784 10.9762C20.7932 10.9033 20.4392 10.7225 20.1616 10.4569C19.8839 10.1913 19.6949 9.85272 19.6187 9.48422C19.5425 9.11571 19.5824 8.73385 19.7334 8.38708C19.8844 8.0403 20.1396 7.74424 20.4668 7.53646C20.7939 7.32868 21.1782 7.21853 21.5709 7.22C22.094 7.22196 22.595 7.42158 22.9648 7.77535C23.3346 8.12913 23.5433 8.60839 23.5454 9.1087ZM21.5399 4.729C20.6324 4.72901 19.7454 4.98649 18.9911 5.46889C18.2367 5.95128 17.6489 6.6369 17.302 7.43898C16.9551 8.24105 16.8647 9.12354 17.0423 9.97476C17.2199 10.826 17.6575 11.6077 18.2996 12.2209C18.9418 12.8342 19.7597 13.2514 20.6499 13.4199C21.5401 13.5883 22.4624 13.5004 23.3003 13.1672C24.1382 12.834 24.854 12.2705 25.357 11.5481C25.86 10.8256 26.1276 9.97671 26.1261 9.1087C26.124 7.94645 25.6399 6.83247 24.7801 6.01134C23.9202 5.1902 22.7549 4.729 21.5399 4.729Z" fill="#163F31"/>
<path d="M19.5185 46.794C19.5201 47.1696 19.4049 47.5372 19.1877 47.8502C18.9705 48.1631 18.661 48.4073 18.2985 48.5518C17.936 48.6962 17.5368 48.7344 17.1515 48.6614C16.7663 48.5885 16.4124 48.4078 16.1347 48.1422C15.857 47.8765 15.6681 47.538 15.5919 47.1695C15.5156 46.801 15.5555 46.4191 15.7065 46.0723C15.8575 45.7256 16.1128 45.4295 16.4399 45.2217C16.7671 45.0139 17.1514 44.9038 17.5441 44.9053C18.0677 44.9053 18.5699 45.1043 18.9402 45.4585C19.3105 45.8127 19.5185 46.293 19.5185 46.794ZM17.513 42.3845C16.6059 42.3845 15.7192 42.6418 14.965 43.1239C14.2108 43.606 13.623 44.2911 13.2759 45.0928C12.9287 45.8944 12.8379 46.7765 13.0149 47.6275C13.1918 48.4786 13.6286 49.2603 14.27 49.8738C14.9114 50.4874 15.7286 50.9052 16.6183 51.0745C17.5079 51.2438 18.4301 51.1569 19.2681 50.8248C20.1061 50.4928 20.8224 49.9305 21.3263 49.209C21.8303 48.4876 22.0992 47.6393 22.0992 46.7717C22.0992 45.6081 21.6161 44.4922 20.756 43.6695C19.8959 42.8467 18.7294 42.3845 17.513 42.3845Z" fill="#163F31"/>
<path d="M14.0544 12.3957C13.7898 12.3535 13.5189 12.3647 13.2592 12.4288C12.9995 12.4928 12.7566 12.6082 12.5464 12.7675C12.3422 12.9184 12.1711 13.1062 12.0428 13.3204C11.9146 13.5345 11.8317 13.7707 11.7988 14.0154C11.766 14.2602 11.7838 14.5088 11.8514 14.747C11.919 14.9851 12.035 15.2082 12.1927 15.4035C12.3504 15.5988 12.5468 15.7625 12.7706 15.8852C12.9945 16.0079 13.2414 16.0872 13.4973 16.1187C13.7531 16.1501 14.013 16.133 14.262 16.0683C14.5109 16.0037 14.7442 15.8927 14.9483 15.7419C15.1587 15.5957 15.3361 15.4104 15.4697 15.197C15.6033 14.9836 15.6903 14.7465 15.7257 14.5001L18.2986 14.7455C18.199 15.6024 17.8345 16.4114 17.2518 17.0692C16.6691 17.7269 15.8945 18.2035 15.0272 18.438C14.1599 18.6726 13.2391 18.6543 12.3827 18.3857C11.5262 18.1171 10.7729 17.6103 10.2191 16.9301C9.66531 16.2498 9.33611 15.4271 9.27361 14.5669C9.2111 13.7068 9.41813 12.8484 9.86824 12.1014C10.3183 11.3544 10.9911 10.7528 11.8004 10.3734C12.6098 9.99401 13.5191 9.85411 14.412 9.97158L14.0544 12.3957Z" fill="#163F31"/>
<path d="M13.005 40.8974C13.04 40.5876 12.9939 40.2745 12.8706 39.9861C12.7473 39.6978 12.5508 39.4434 12.2989 39.246C12.047 39.0485 11.7476 38.9143 11.4278 38.8554C11.108 38.7965 10.7779 38.8148 10.4674 38.9087C10.1569 39.0025 9.87569 39.1689 9.64931 39.3929C9.42293 39.6168 9.25849 39.8912 9.17086 40.1912C9.08323 40.4913 9.07518 40.8075 9.14744 41.1112C9.21969 41.415 9.36998 41.6967 9.5847 41.9309C9.92844 42.3039 10.4111 42.5334 10.9295 42.5704L10.8129 45.0391C9.90714 44.9982 9.03495 44.6988 8.30872 44.1794C7.58248 43.6601 7.03548 42.9445 6.73821 42.1251C6.44093 41.3057 6.407 40.4198 6.64079 39.5818C6.87458 38.7437 7.36538 37.9918 8.04993 37.423C8.73448 36.8542 9.58143 36.4945 10.4816 36.3903C11.3818 36.2861 12.294 36.4422 13.1006 36.8384C13.9072 37.2346 14.5713 37.8529 15.0073 38.6134C15.4433 39.3739 15.6312 40.2419 15.5468 41.1056L13.005 40.8974Z" fill="#163F31"/>
<path d="M42.8233 6.09737L36.8768 3.9707L36.0683 6.06019L37.794 6.67736L35.5786 12.3509L38.0739 13.2358L40.2815 7.56223L42.0071 8.17941L42.8233 6.09737Z" fill="#163F31"/>
<path d="M43.057 14.8045L41.8599 15.5481L39.6445 13.5924L47.791 9.25732L50.123 11.3691L46.1819 19.4371L43.982 17.4665L44.705 16.2768L43.057 14.8045ZM44.7982 13.6817L45.7466 14.5368L47.1691 12.1796L44.7982 13.6817Z" fill="#163F31"/>
<path d="M29.9033 48.5115L30.1676 46.3477L24.5165 45.7305L23.5215 53.7911L26.11 54.0811L26.4986 50.9728L29.1727 51.2628L29.3981 49.4856L26.7163 49.1956L26.8407 48.1843L29.9033 48.5115Z" fill="#163F31"/>
<path d="M38.3536 47.0466L37.7784 44.9348L32.2827 46.3105L34.4048 54.1702L36.9234 53.5456L36.1072 50.5192L38.719 49.8574L38.2526 48.1248L35.6408 48.7792L35.3765 47.7976L38.3536 47.0466Z" fill="#163F31"/>
<path d="M44.8915 46.7788L47.0214 45.1727L45.8554 43.7524L43.7178 45.366L43.0803 44.5927L45.5367 42.7486L44.1297 41.0234L39.6445 44.4068L44.876 50.7868L45.3812 50.4001L49.369 47.4034L47.9387 45.6709L45.4901 47.515L44.8915 46.7788Z" fill="#163F31"/>
<path d="M51.1949 40.0343L52.5474 37.7886L50.915 36.8815L49.5547 39.1345L48.6608 38.6363L50.231 36.0561L48.2566 34.9556L45.396 39.6848L52.7262 43.7596L53.0449 43.2168L55.5946 39.023L53.5968 37.915L52.0266 40.5027L51.1949 40.0343Z" fill="#163F31"/>
<path d="M11.0771 28.2115V24.5901H12.5774V24.9916H11.4503V26.1591H12.4996V26.5532H11.4503V27.8099H12.6007V28.2115H11.0771Z" fill="#163F31"/>
<path d="M50.1293 28.2114H49.7484V25.2371L49.3286 25.5866V25.1479C49.5002 25.0239 49.659 24.8845 49.8028 24.7314H50.1215L50.1293 28.2114Z" fill="#163F31"/>
<path d="M52.8044 26.4864C52.8044 27.3936 52.8044 28.2859 52.027 28.2859C51.6073 28.2859 51.3274 27.929 51.3352 27.3787H51.7083C51.7083 27.6316 51.7861 27.8993 52.027 27.8993C52.3846 27.8993 52.4079 27.4085 52.4079 26.5162C52.3794 26.6155 52.3159 26.7024 52.228 26.7621C52.1402 26.8217 52.0335 26.8504 51.926 26.8433C51.7083 26.8433 51.2886 26.6946 51.2886 25.7428C51.2886 24.9992 51.6617 24.6794 52.0659 24.6794C52.8432 24.6794 52.8432 25.5495 52.8432 26.4864H52.8044ZM51.7161 25.7428C51.7161 26.0849 51.7627 26.4864 52.0892 26.4864C52.4157 26.4864 52.4623 26.1072 52.4623 25.7428C52.4623 25.3784 52.4079 24.9992 52.0892 24.9992C51.7705 24.9992 51.7161 25.4082 51.7161 25.7428Z" fill="#163F31"/>
<path d="M53.4731 24.7314H54.919V25.133L54.1727 28.2114H53.753L54.5381 25.133H53.4731V24.7314Z" fill="#163F31"/>
<path d="M56.7451 28.2114H56.3719V25.2371L55.96 25.5866V25.1479C56.129 25.0236 56.2852 24.8842 56.4264 24.7314H56.7451V28.2114Z" fill="#163F31"/>
<path d="M23.1798 41.0605C21.9749 40.1682 22.0604 36.9187 22.0604 36.9187C22.0783 35.0315 22.5886 33.1784 23.5451 31.5277C24.1887 30.3545 25.038 29.2956 26.0559 28.3971C28.2246 26.5977 31.1396 26.3002 32.9119 27.8023C33.4889 28.2934 33.9047 28.9339 34.109 29.6464C35.093 29.8217 35.9815 30.3216 36.6198 31.0592C38.1744 32.7695 37.8791 35.5208 36.0057 37.6251C35.1028 38.6435 34.0564 39.537 32.8964 40.2798C31.1482 41.315 29.1449 41.8896 27.0897 41.9454C24.1436 41.9454 23.2031 41.0605 23.2031 41.0605H23.1798ZM33.425 30.39C31.457 31.3773 29.8091 32.8611 28.6599 34.6805C27.4541 36.7937 25.852 38.6766 23.9338 40.2351C23.9338 40.2351 23.3896 40.6441 23.9338 40.6441C23.9338 40.6441 24.7111 40.5846 26.3124 39.1569C27.6289 38.0014 28.7791 36.6836 29.7326 35.2382C30.7798 33.5285 32.09 31.9793 33.6193 30.6428C33.6508 30.6255 33.6745 30.5978 33.686 30.5649C33.6974 30.532 33.6958 30.4962 33.6815 30.4643C33.6578 30.4177 33.6168 30.3812 33.5665 30.3619C33.5162 30.3427 33.4602 30.3421 33.4094 30.3602" fill="#163F31"/>
<path d="M31.0937 20.4042C30.7575 19.7575 30.258 19.2012 29.6405 18.7857C29.0229 18.3702 28.3068 18.1087 27.5569 18.0247C26.561 17.9251 25.56 18.1619 24.7274 18.6939C24.0681 18.3192 23.3093 18.1357 22.5431 18.166C20.2111 18.2701 18.2989 20.3967 18.0579 23.1629C17.9869 24.4852 18.1471 25.8097 18.5321 27.0816C19.047 28.9173 20.036 30.5998 21.4082 31.9744C21.4082 31.9744 21.7036 32.2792 22.0534 32.5915C22.6517 30.9992 23.6313 29.563 24.9139 28.3977C24.7973 27.6541 24.6263 26.9105 24.3931 25.9736C23.8924 23.9034 23.9891 21.7418 24.673 19.7201C24.6981 19.6729 24.7405 19.6362 24.7921 19.617C24.8437 19.5978 24.9009 19.5974 24.9528 19.616C24.9856 19.6305 25.0121 19.6555 25.0277 19.6867C25.0433 19.718 25.0471 19.7534 25.0383 19.787C24.9228 21.7616 25.1167 23.7416 25.6135 25.6613C25.7551 26.2696 25.8589 26.8854 25.9245 27.5054C26.92 26.7755 28.0903 26.295 29.3292 26.1075C29.0494 25.5284 28.9213 24.8929 28.9561 24.2559C28.9937 23.5029 29.2048 22.7671 29.5744 22.1013C29.9439 21.4354 30.4627 20.8559 31.0937 20.4042Z" fill="#163F31"/>
<path d="M34.6842 29.1185C33.1295 25.6757 30.0202 26.0772 30.0202 26.0772C29.5538 24.0844 30.0202 22.1511 31.5749 21.1547C32.2108 20.7495 32.9562 20.5299 33.7203 20.5226C34.1556 19.664 34.8932 18.9795 35.8035 18.5893C37.9101 17.5855 40.6152 18.5893 42.2243 20.8201C43.0195 21.903 43.6526 23.0868 44.1054 24.3372C44.6997 26.1927 44.7694 28.1657 44.3075 30.0554C43.5302 32.762 42.4419 33.4164 42.4419 33.4164C41.4858 34.16 39.2315 33.6915 38.3687 33.4907C38.3508 32.4714 37.9768 31.4871 37.3062 30.6947C36.6357 29.9023 35.7071 29.3475 34.6686 29.1185H34.6842ZM34.3344 21.2811C34.811 23.3121 35.8563 25.1807 37.3582 26.6869C39.1343 28.3249 40.5855 30.2572 41.6413 32.3902C41.6413 32.3902 41.9056 32.9925 42.0532 32.4571C42.0532 32.4571 42.1854 31.7656 41.2215 29.929C40.4173 28.4452 39.4109 27.07 38.2288 25.8393C36.8044 24.4609 35.6066 22.8839 34.6764 21.1621C34.6658 21.1295 34.6438 21.1013 34.6141 21.0823C34.5844 21.0634 34.5487 21.0548 34.5132 21.058C34.4604 21.0686 34.4133 21.0969 34.3805 21.1379C34.3477 21.1788 34.3314 21.2296 34.3344 21.2811Z" fill="#163F31"/>
<path d="M60.6318 29C60.6318 34.7356 58.8538 40.3425 55.5227 45.1115C52.1915 49.8806 47.4568 53.5976 41.9173 55.7925C36.3778 57.9874 30.2823 58.5617 24.4016 57.4428C18.5209 56.3238 13.1191 53.5618 8.87933 49.5061C4.63958 45.4504 1.75227 40.2831 0.582525 34.6576C-0.58722 29.0322 0.0131353 23.2012 2.30767 17.9022C4.60221 12.6031 8.48788 8.07394 13.4733 4.88738C18.4587 1.70082 24.32 0 30.3159 0C38.3562 0 46.0672 3.05535 51.7525 8.4939C57.4378 13.9325 60.6318 21.3087 60.6318 29ZM30.3159 0.780769C24.4721 0.780773 18.7596 2.43893 13.9011 5.54543C9.0427 8.65193 5.25669 13.0672 3.02213 18.2325C0.787577 23.3979 0.204889 29.0812 1.34779 34.5634C2.4907 40.0456 5.30784 45.0804 9.44277 49.0306C13.5777 52.9809 18.8446 55.6691 24.5771 56.7552C30.3096 57.8412 36.25 57.2764 41.6468 55.132C47.0436 52.9876 51.6542 49.3602 54.8952 44.7085C58.1363 40.0569 59.8622 34.5902 59.8545 29C59.8545 25.2911 59.0902 21.6185 57.6052 18.1924C56.1203 14.7662 53.9439 11.6537 51.2005 9.03283C48.4571 6.41195 45.2005 4.33411 41.6169 2.91815C38.0333 1.50219 34.1931 0.775882 30.3159 0.780769Z" fill="#163F31"/>
<path d="M46.6396 28.9991C46.6396 32.0876 45.6822 35.1066 43.8885 37.6746C42.0948 40.2425 39.5454 42.244 36.5626 43.4259C33.5797 44.6077 30.2975 44.917 27.131 44.3145C23.9645 43.7119 21.0558 42.2247 18.7729 40.0409C16.4899 37.857 14.9352 35.0746 14.3054 32.0455C13.6755 29.0165 13.9988 25.8767 15.2343 23.0234C16.4698 20.1701 18.5621 17.7313 21.2466 16.0155C23.931 14.2996 27.0871 13.3838 30.3157 13.3838C34.645 13.3838 38.7971 15.029 41.8584 17.9574C44.9198 20.8859 46.6396 24.8577 46.6396 28.9991ZM30.3157 14.0084C27.2162 14.0084 24.1864 14.8876 21.6093 16.5348C19.0322 18.182 17.0236 20.5232 15.8375 23.2624C14.6514 26.0016 14.3411 29.0158 14.9458 31.9237C15.5504 34.8316 17.043 37.5027 19.2346 39.5992C21.4262 41.6957 24.2185 43.1234 27.2584 43.7018C30.2983 44.2803 33.4492 43.9834 36.3127 42.8488C39.1762 41.7142 41.6236 39.7928 43.3456 37.3276C45.0676 34.8623 45.9866 31.964 45.9866 28.9991C45.9846 25.024 44.3329 21.2121 41.3944 18.4013C38.456 15.5904 34.4712 14.0104 30.3157 14.0084Z" fill="#163F31"/>
<path d="M50.3471 15.3544H50.0361V15.228H50.798V15.3544H50.4792V16.2468H50.3471V15.3544Z" fill="#163F31"/>
<path d="M51.9253 15.3321L51.6222 16.2468H51.4978L51.1946 15.3321V16.2468H51.0625V15.228H51.2957L51.5678 16.0683H51.5755L51.8398 15.228H52.0575V16.2468H51.9253V15.3321Z" fill="#163F31"/>
</svg>
