<svg width="59" height="49" viewBox="0 0 59 49" fill="none" xmlns="http://www.w3.org/2000/svg">
<g clip-path="url(#clip0)">
<path d="M19.2821 25.1746C19.0944 12.4119 39.0203 12.6817 38.8593 25.0667C39.1007 37.8563 19.148 37.9373 19.2821 25.1746ZM29.1512 25.0127C27.9443 20.9114 32.7984 19.8591 36.2043 19.5892C34.4612 18.6449 31.1089 20.7495 30.3848 19.6972C27.0594 17.7544 23.3853 18.5369 22.7953 22.1256C23.7071 27.9808 23.7071 25.0936 22.7148 31.5964C23.3853 28.1426 25.1016 23.6636 29.1512 25.0127Z" fill="#3B130D"/>
<path d="M6.46289 5.5583C6.54335 5.20752 6.6238 4.88374 6.70425 4.53296C7.29425 2.29343 8.71562 0.809397 10.9415 0.242767C13.1943 -0.350845 15.2056 0.188802 16.8952 1.7268C16.4393 2.23946 15.9833 2.72515 15.5006 3.23781C14.4011 2.26645 13.1943 1.80774 11.7461 2.10455C10.8343 2.29343 10.0833 2.80609 9.52016 3.53462C8.34016 5.12658 8.50107 7.47404 9.92244 8.90411C11.0756 10.0644 13.3283 10.6849 15.5274 8.79618C15.9297 9.30884 16.332 9.84849 16.7879 10.4151C16.1174 11.1167 15.0715 11.6563 13.8915 11.8992C10.2443 12.6277 7.02607 10.2802 6.59698 6.82647C6.59698 6.71854 6.51653 6.61061 6.48971 6.50268C6.46289 6.17889 6.46289 5.8551 6.46289 5.5583Z" fill="#3B130D"/>
<path d="M25.7181 3.12998C25.7181 6.04408 25.7181 8.90421 25.7181 11.7374C24.6453 11.9262 24.3503 11.8453 23.9212 11.2517C23.2776 11.4675 22.634 11.7643 21.9903 11.9262C19.8449 12.4119 17.9676 11.1977 17.7799 9.03912C17.619 7.09639 17.7531 5.12668 17.7531 3.12998C18.3162 3.12998 18.8794 3.12998 19.5499 3.12998C19.5499 3.31886 19.5499 3.53472 19.5499 3.75058C19.5499 5.20763 19.5499 6.66468 19.5499 8.12172C19.5499 9.41688 20.2472 10.2263 21.4272 10.3073C22.7681 10.4152 23.6799 9.76765 23.814 8.44551C23.9481 7.20432 23.9481 5.93615 23.9212 4.69496C23.8676 3.103 24.3503 2.99507 25.7181 3.12998Z" fill="#3B130D"/>
<path d="M37.0892 2.96802C37.6255 2.96802 38.0814 2.96802 38.5105 2.96802C39.0201 2.96802 39.2078 3.34577 39.3419 3.75051C39.8514 5.12661 40.3342 6.50271 40.8437 7.90579C40.8974 8.04071 40.951 8.14864 41.0583 8.41846C41.246 7.93278 41.3801 7.58201 41.4873 7.23123C41.8628 6.17892 42.2383 5.12661 42.6137 4.0743C42.9892 3.02198 43.0696 2.96802 44.196 2.96802C44.4105 2.96802 44.6251 2.96802 44.8933 2.96802C44.3301 4.45205 43.7669 5.85513 43.2037 7.2852C42.6405 8.71527 42.0774 10.1723 41.4337 11.5754C41.0314 12.4928 40.5219 13.3562 39.6637 13.8689C39.0469 14.2197 38.296 14.4625 37.5719 14.5704C36.6601 14.7054 36.3383 14.1387 36.526 12.8975C36.7405 12.8975 36.9551 12.8975 37.1964 12.8975C38.4837 12.8975 39.5296 12.142 39.9051 10.9548C39.9587 10.7659 39.9051 10.4961 39.8246 10.2802C38.9933 8.06769 38.1351 5.85513 37.3037 3.64258C37.2501 3.42672 37.1964 3.23784 37.0892 2.96802Z" fill="#3B130D"/>
<path d="M51.3567 4.12821C50.6326 4.96467 50.4448 4.99165 49.4794 4.53295C48.7553 4.18218 47.9776 4.12821 47.2803 4.53295C47.0121 4.69484 46.7171 5.09958 46.7171 5.39639C46.7171 5.66621 47.0121 6.04396 47.2803 6.17888C47.7094 6.42172 48.2458 6.50266 48.7285 6.63758C49.2112 6.79947 49.7208 6.88042 50.1767 7.09628C51.8126 7.8248 52.1612 9.68658 50.9276 10.9817C49.5598 12.4388 46.1003 12.5467 44.8398 10.631C45.5639 9.71357 45.9394 9.63262 46.9048 10.2262C47.6289 10.658 48.4067 10.6849 49.1576 10.3881C49.5598 10.2262 49.8817 9.92943 49.8817 9.41676C49.8817 8.9041 49.533 8.68824 49.1308 8.52634C48.7017 8.36445 48.2726 8.2835 47.8435 8.14859C47.2803 7.95971 46.6635 7.79782 46.1539 7.50101C44.9739 6.82645 44.6789 5.45035 45.3494 4.29011C46.5294 2.23945 50.5253 2.50927 51.3567 4.12821Z" fill="#3B130D"/>
<path d="M28.6954 3.15677C28.7222 3.42659 28.749 3.64245 28.7759 3.96624C29.4463 3.34564 30.1972 2.99487 31.1627 2.99487C31.1627 3.45357 31.1895 3.91227 31.1359 4.34399C31.109 4.4789 30.9213 4.66778 30.7872 4.69476C29.2854 5.12648 28.749 5.80104 28.749 7.33904C28.749 8.33738 28.749 9.33573 28.749 10.3341C28.749 11.7102 28.4004 12.007 26.9254 11.7911C26.9254 11.6023 26.9254 11.3864 26.9254 11.1975C26.9254 9.03893 26.9254 6.88034 26.9254 4.72175C26.8986 3.21073 27.1131 3.02186 28.6954 3.15677Z" fill="#3B130D"/>
<path d="M33.8174 3.15695C33.8442 3.39979 33.871 3.64263 33.8979 3.93943C34.5951 3.34582 35.346 2.94109 36.2579 2.96807C36.2579 3.50772 36.2579 4.02038 36.2579 4.56003C36.1506 4.58701 36.0165 4.64098 35.9092 4.69494C34.5415 5.01873 33.871 5.8282 33.871 7.23128C33.871 8.2836 33.871 9.30893 33.871 10.3612C33.871 11.7373 33.576 12.0072 32.101 11.8183C32.101 11.6294 32.0742 11.4136 32.0742 11.1977C32.0742 8.98514 32.0742 6.79957 32.0742 4.58701C32.0742 3.21091 32.3156 2.99505 33.8174 3.15695Z" fill="#3B130D"/>
<path d="M24.3243 45.3033C24.807 43.3876 25.2629 41.6338 25.692 39.8799C25.7724 39.6101 25.8261 39.3402 25.8797 39.0704C26.2015 37.8292 26.4965 37.6134 27.757 37.8832C27.8911 37.9102 28.0788 38.153 28.1056 38.3149C28.6688 40.4465 29.2052 42.6051 29.7415 44.7367C29.7684 44.8447 29.822 44.9796 29.9293 45.2494C30.3047 43.7923 30.6265 42.5242 30.9484 41.229C31.1093 40.5545 31.2702 39.9069 31.4311 39.2323C31.7529 37.9372 32.2088 37.6673 33.6034 37.9372C33.2279 39.3402 32.8524 40.7433 32.477 42.1194C31.9406 44.0891 31.4311 46.0589 30.8679 48.0286C30.7874 48.3254 30.8947 48.7841 30.3315 48.8111C29.5806 48.865 29.1247 48.7031 28.8834 48.1635C28.7761 47.9476 28.7224 47.7318 28.6688 47.4889C28.1861 45.6002 27.7302 43.7384 27.2474 41.8496C27.1938 41.6607 27.1134 41.4719 26.9256 41.256C26.7111 42.0655 26.4965 42.9019 26.282 43.7114C25.9602 45.0335 25.6384 46.3287 25.2897 47.6508C25.2093 47.9746 25.0484 48.3524 24.7802 48.5412C24.512 48.7301 24.0829 48.7571 23.7343 48.7841C23.1979 48.838 23.2783 48.3254 23.1979 48.0286C22.3129 44.8447 21.4547 41.6337 20.5965 38.4498C20.5429 38.2879 20.5161 38.0991 20.4893 37.9372C21.7229 37.6134 22.3129 37.9372 22.6079 39.0974C23.0906 40.9592 23.5465 42.821 24.0293 44.6828C24.1633 44.8447 24.217 44.9796 24.3243 45.3033Z" fill="#3B130D"/>
<path d="M2.17182 45.0605C2.17182 45.87 2.17182 46.6794 2.17182 47.4619C2.17182 48.6222 1.28682 49.2428 0.214095 48.7841C0.0800036 48.7301 0.0263672 48.4333 0.0263672 48.2444C0.0263672 45.6811 0.0263672 43.1178 0.0263672 40.5814C0.0263672 39.8259 0.0531854 39.0974 0.0263672 38.3419C0.0263672 37.9641 0.160458 37.8562 0.509095 37.8562C1.85 37.8832 3.19091 37.8562 4.505 37.9371C6.35546 38.0451 7.56228 39.3672 7.61591 41.229C7.66955 43.2257 6.62364 44.5748 4.74637 44.8446C3.915 44.9796 3.08364 44.9796 2.17182 45.0605ZM2.19864 43.1178C2.8691 43.1178 3.51273 43.1987 4.15637 43.0908C5.01455 42.9829 5.47046 42.4162 5.55091 41.5798C5.60455 40.7433 5.28273 40.0688 4.58546 39.9069C3.83455 39.718 3.03 39.691 2.22546 39.6101C2.19864 40.8782 2.19864 41.9845 2.19864 43.1178Z" fill="#3B130D"/>
<path d="M57.3106 41.3906C57.3106 40.5272 57.3106 39.7177 57.3106 38.9082C57.3106 38.5035 57.391 38.1258 57.8469 37.9639C58.6783 37.6671 59.0001 37.9099 59.0001 38.7464C59.0001 41.8493 59.0001 44.9523 59.0001 48.0553C59.0001 48.2981 59.0001 48.514 59.0001 48.7298C57.981 48.9727 57.6592 48.8378 57.2569 48.0553C56.1574 48.9457 54.8969 49.2155 53.5292 48.8378C52.6442 48.5949 51.9201 48.1362 51.3569 47.4077C50.1233 45.7618 50.1769 43.4683 51.491 41.9033C52.8319 40.2844 54.8433 40.0955 57.3106 41.3906ZM57.3106 44.7364C57.3106 43.1985 56.211 42.0382 54.736 42.0382C53.261 42.0382 52.1078 43.1984 52.1078 44.7095C52.1078 46.1935 53.261 47.4077 54.7092 47.4077C56.1842 47.4077 57.3106 46.2744 57.3106 44.7364Z" fill="#3B130D"/>
<path d="M16.8151 46.0048C17.2711 46.4365 17.727 46.8682 18.156 47.2729C16.4129 49.2427 12.6047 49.7283 10.2179 47.5158C7.80423 45.3032 7.80423 41.4447 10.1642 39.2052C12.3633 37.1276 16.3324 37.2085 18.156 39.4211C17.727 39.8258 17.2979 40.2575 16.8151 40.6892C15.8229 39.8528 14.7501 39.4211 13.4092 39.6639C12.551 39.8258 11.827 40.2575 11.2906 40.9321C10.057 42.4971 10.191 44.7636 11.6124 46.1397C13.0338 47.5158 15.0451 47.4888 16.8151 46.0048Z" fill="#3B130D"/>
<path d="M41.7022 44.7367C41.7022 47.1651 39.8786 48.9999 37.4113 49.0269C34.944 49.0269 33.1204 47.219 33.0935 44.7636C33.0667 42.3622 34.9172 40.5004 37.3845 40.4734C39.8249 40.4465 41.6754 42.2813 41.7022 44.7367ZM37.3845 47.4079C38.8595 47.4079 40.0126 46.2477 40.0126 44.7367C40.0126 43.1987 38.8863 42.0384 37.4113 42.0384C35.9095 42.0384 34.7295 43.2256 34.7295 44.7367C34.7563 46.2207 35.9095 47.4079 37.3845 47.4079Z" fill="#3B130D"/>
<path d="M44.3571 40.7431C44.3571 40.959 44.3839 41.1749 44.4107 41.4447C45.0812 40.8781 45.7516 40.4733 46.6366 40.5273C46.6366 41.013 46.6366 41.4717 46.6366 41.9843C46.4757 42.0383 46.288 42.0923 46.1002 42.1462C44.9202 42.524 44.3839 43.2255 44.3839 44.4397C44.3839 45.4381 44.3839 46.4364 44.3839 47.4348C44.3839 48.7029 44.0621 48.9998 42.6943 48.7569C42.6943 48.568 42.6943 48.3522 42.6943 48.1363C42.6943 46.1126 42.6943 44.089 42.6943 42.0653C42.6943 40.7431 42.9625 40.5273 44.3571 40.7431Z" fill="#3B130D"/>
<path d="M49.3722 48.8109C49.0236 48.8109 48.7554 48.8109 48.4872 48.8109C48.0581 48.7839 47.7899 48.5681 47.7631 48.1094C47.7363 47.8935 47.7095 47.6777 47.7095 47.4618C47.7095 44.4128 47.7095 41.3638 47.7095 38.3418C47.7095 38.2068 47.7363 38.0719 47.7363 37.8831C48.0045 37.8831 48.219 37.8831 48.4604 37.8831C49.1308 37.91 49.3722 38.1799 49.3722 38.8274C49.3722 40.4194 49.3722 42.0114 49.3722 43.6033C49.3722 45.3032 49.3722 47.0301 49.3722 48.8109Z" fill="#3B130D"/>
<path d="M2.19922 43.1176C2.19922 41.9843 2.19922 40.878 2.19922 39.6099C3.00376 39.7178 3.80831 39.7178 4.55922 39.9067C5.25649 40.0686 5.57831 40.7701 5.52467 41.5796C5.47104 42.416 5.01513 42.9557 4.13013 43.0906C3.51331 43.1985 2.86967 43.1176 2.19922 43.1176Z" fill="white"/>
</g>
<defs>
<clipPath id="clip0">
<rect width="59" height="49" fill="white"/>
</clipPath>
</defs>
</svg>
