<svg width="139" height="47" viewBox="0 0 139 47" fill="none" xmlns="http://www.w3.org/2000/svg">
<path d="M51.8039 32.3226H54.8023L54.2937 29.9753V16.0264H51.4291V22.3938C50.5724 21.3955 49.3676 20.8019 47.9755 20.8019C45.1109 20.8019 42.8888 23.2032 42.8888 26.6837C42.8888 30.1911 45.1109 32.5654 47.9755 32.5654C49.3944 32.5654 50.6259 31.9449 51.4826 30.8926L51.8039 32.3226ZM108.453 23.9317C109.042 23.9317 109.578 24.0936 110.06 24.4443L111.425 21.3685C110.782 20.9638 110.06 20.8019 109.337 20.8019C108.052 20.8019 106.954 21.3955 106.285 22.5017L105.99 21.0717H103.045L103.527 23.2841V32.3496H106.392V25.1458C106.767 24.3903 107.49 23.9317 108.453 23.9317ZM116.833 29.5436C115.173 29.5436 113.942 28.4374 113.942 26.7107C113.942 24.9569 115.173 23.8777 116.833 23.8777C118.52 23.8777 119.724 24.9569 119.724 26.7107C119.724 28.4104 118.52 29.5436 116.833 29.5436ZM45.6731 26.6837C45.6731 24.9299 46.9046 23.8507 48.5645 23.8507C50.2511 23.8507 51.4558 24.9299 51.4558 26.6837C51.4558 28.4104 50.2511 29.5166 48.5645 29.5166C46.9046 29.5436 45.6731 28.4104 45.6731 26.6837ZM129.55 29.5436C127.89 29.5436 126.658 28.4374 126.658 26.7107C126.658 24.9569 127.89 23.8777 129.55 23.8777C131.236 23.8777 132.441 24.9569 132.441 26.7107C132.414 28.4104 131.209 29.5436 129.55 29.5436ZM61.763 23.6888C63.2355 23.6888 64.1993 24.3903 64.5206 25.6854H59.0055C59.3 24.3634 60.2906 23.6888 61.763 23.6888ZM96.0044 23.6888C97.4768 23.6888 98.4406 24.3903 98.7619 25.6854H93.2469C93.5949 24.3634 94.5587 23.6888 96.0044 23.6888ZM82.0294 32.3226H86.6342L89.6326 21.0178H86.5003L84.3318 30.1911L82.1365 21.0448H79.0577L82.0294 32.3226ZM74.6671 32.3226H77.5317V21.0178H74.6671V32.3226ZM62.1914 32.5384C63.7977 32.5384 65.3505 32.0798 66.6623 31.2434L65.5647 28.7612C64.5473 29.3278 63.3694 29.6246 62.2182 29.6246C60.7189 29.6246 59.6748 29.031 59.1929 27.9248H67.2781C67.3584 27.4931 67.4119 27.1154 67.4119 26.6027C67.4119 23.0953 65.0024 20.775 61.8166 20.775C58.5772 20.775 56.2212 23.1492 56.2212 26.6567C56.1945 30.2451 58.5504 32.5384 62.1914 32.5384ZM135.199 26.6837C135.199 23.1762 132.789 20.8019 129.55 20.8019C126.283 20.8019 123.901 23.2032 123.901 26.6837C123.901 30.1642 126.31 32.5654 129.55 32.5654C132.789 32.5654 135.199 30.1911 135.199 26.6837ZM96.406 32.5654C98.0123 32.5654 99.565 32.1337 100.877 31.2704L99.7792 28.7882C98.7619 29.3547 97.5839 29.6515 96.4327 29.6515C94.9335 29.6515 93.8894 29.058 93.4075 27.9518H101.493C101.573 27.5201 101.626 27.1423 101.626 26.6297C101.626 23.1223 99.217 20.8019 96.0312 20.8019C92.7917 20.8019 90.4358 23.1762 90.4358 26.6837C90.4358 30.2991 92.765 32.5654 96.406 32.5654ZM116.833 32.5654C120.099 32.5654 122.482 30.1642 122.482 26.6837C122.482 23.2032 120.072 20.8019 116.833 20.8019C113.567 20.8019 111.184 23.2032 111.184 26.6837C111.184 30.1642 113.567 32.5654 116.833 32.5654ZM69.2324 32.3226H72.097V16.0264H69.2324V32.3226ZM76.1128 19.4799C77.1034 19.4799 77.9065 18.6705 77.9065 17.6452C77.9065 16.62 77.1301 15.8106 76.1128 15.8106C75.0955 15.8106 74.2923 16.62 74.2923 17.6452C74.2923 18.6705 75.0687 19.4799 76.1128 19.4799ZM26.8792 5.74683L25.2461 21.3955L22.4618 8.20205L13.6806 10.0637L16.4381 23.2572L3.80176 25.9552L6.0506 36.4776L28.2981 41.2531L33.3848 29.7864L35.7942 6.69114L26.8792 5.74683ZM19.8382 28.4644C19.383 28.8961 18.7941 28.8421 18.1248 28.6263C17.4822 28.4104 17.2145 27.655 17.4287 26.6837C17.6161 25.9822 18.446 25.8743 18.9011 25.8743C19.0618 25.8743 19.2224 25.9012 19.383 25.9822C19.6775 26.1171 20.1862 26.4139 20.2933 26.8456C20.4539 27.4931 20.2933 28.0327 19.8382 28.4644ZM26.2902 29.1659C25.9422 29.7595 25.0855 29.8404 24.202 29.4087C23.613 29.1119 23.613 28.4104 23.6933 27.9518C23.7201 27.7089 23.8272 27.4661 23.9878 27.2773C24.202 27.0075 24.55 26.6567 24.9248 26.6567C25.5941 26.6297 26.1296 26.9265 26.4508 27.4661C26.7721 28.0057 26.6115 28.5993 26.2902 29.1659Z" fill="#3C2008"/>
</svg>
