<svg width="108" height="18" viewBox="0 0 108 18" fill="none" xmlns="http://www.w3.org/2000/svg">
<g clip-path="url(#clip0)">
<path d="M4.38005 8.01334H8.27995V13.575C8.27995 16.3853 6.83969 18 4.13996 18C1.44003 18 0 16.3855 0 13.575V4.42522C0 1.61451 1.44003 0 4.13996 0C6.83992 0 8.27995 1.61454 8.27995 4.42522V6.15954H5.63998V4.24598C5.63998 2.99051 5.10007 2.51219 4.19995 2.51219C3.2998 2.51219 2.76015 2.99051 2.76015 4.24598V13.7543C2.76015 15.01 3.30007 15.4888 4.19995 15.4888C5.09984 15.4888 5.63998 15.01 5.63998 13.7543V10.525H4.38005V8.01334Z" fill="#163F31"/>
<path d="M12.3 12.0205L8.81982 0.239746H11.6999L13.8 8.25309L15.8998 0.239746H18.5998L15.0599 12.0205V17.8807H12.3V12.0205Z" fill="#163F31"/>
<path d="M25.5603 12.7376L27.4802 0.239483H31.3202V17.8207H28.6801V5.20309L26.7602 17.8204H24.1202L22.0803 5.38209V17.8204H19.6802V0.239258H23.5202L25.5603 12.7376Z" fill="#163F31"/>
<path d="M37.08 0.000488281C39.7799 0.000488281 41.1602 1.61499 41.1602 4.42571V4.96379H38.5198V4.24617C38.5198 2.9907 38.0399 2.51237 37.1397 2.51237C36.2398 2.51237 35.7599 2.9907 35.7599 4.24617C35.7599 7.89401 41.16 8.55191 41.16 13.5752C41.16 16.3855 39.7198 18.0002 37.0198 18.0002C34.3199 18.0002 32.8799 16.3857 32.8799 13.5752V12.4985H35.5199V13.7545C35.5199 15.0099 36.06 15.4888 36.9601 15.4888C37.8602 15.4888 38.3999 15.0099 38.3999 13.7545C38.3999 10.1066 33 9.4485 33 4.42541C33 1.615 34.3798 0.000488281 37.08 0.000488281Z" fill="#163F31"/>
<path d="M45.5399 17.821H42.7803V0.239746H45.5399V7.77454H48.72V0.239746H51.5402V17.821H48.72V10.2862H45.5399V17.821Z" fill="#163F31"/>
<path d="M62.5203 17.821H59.7001L59.2202 14.6514H55.8003L55.3203 17.821H52.8003L55.6202 0.239746H59.7L62.5203 17.821ZM56.22 12.2596H58.9202L57.6001 3.34906L56.22 12.2596Z" fill="#163F31"/>
<path d="M69.5998 17.8207C69.4199 17.3419 69.3599 17.1033 69.3599 15.6683V12.9173C69.3599 11.3028 68.8195 10.7052 67.5598 10.7052H66.6V17.8811H63.8403V0.23999H68.0398C70.9198 0.23999 72.18 1.55548 72.18 4.30666V5.68165C72.18 7.47573 71.5797 8.67163 70.3799 9.27C71.7595 9.86784 72.2395 11.184 72.2395 13.0378V15.7285C72.2395 16.566 72.2395 17.2235 72.5397 17.8811H69.5995L69.5999 17.8207H69.5998ZM66.5995 2.7509V8.1328H67.6798C68.6996 8.1328 69.3599 7.65421 69.3599 6.279V4.54472C69.3599 3.28879 68.9395 2.75063 67.9201 2.75063L66.5995 2.75101V2.7509Z" fill="#163F31"/>
<path d="M77.5803 10.824L76.7401 12.4386V17.8204H73.9805V0.239014H76.7401V7.89328L80.4002 0.239014H83.1603L79.32 8.07282L83.1603 17.8204H80.2805L77.5803 10.824Z" fill="#163F31"/>
<path d="M84.9604 0.299316C92.6406 0.299316 100.321 0.299316 108 0.299316C108 0.299316 97.4404 12.0203 92.1004 17.8208C92.1004 17.8208 92.5206 16.9243 92.7609 16.5653C92.5206 16.5653 92.2803 15.6087 91.9807 15.1296C91.6809 15.3093 91.3804 15.4288 91.0806 15.5483C90.781 15.7279 90.6007 15.6684 90.4208 15.31C90.3008 15.0107 90.1811 14.6519 90.0003 14.3532C89.7007 14.4727 88.9802 14.8917 88.8603 14.8917L85.1403 13.3365C85.2003 13.3365 87.0003 13.2772 87.78 13.3365L88.9802 14.3536C89.28 14.0551 89.5201 13.5765 89.7605 13.3365H90.4203C90.6601 13.576 90.9002 13.9946 91.1401 14.2934C91.4399 13.9946 91.7999 13.6357 92.0402 13.3967H92.5201C92.7604 13.6357 93.06 13.9946 93.3003 14.2336C93.3003 14.2336 93.3603 14.2336 93.4195 14.2934C93.4195 14.2934 93.9002 13.7553 94.0798 13.5162H94.6199C94.6199 13.5162 101.4 3.34977 101.46 3.23048C96.0003 2.21287 84.9604 0.299316 84.9604 0.299316Z" fill="#163F31"/>
<path d="M91.6804 6.33919L87.8999 4.24609C90.1195 4.78417 92.4002 5.32252 94.6199 5.80111L91.6804 6.33919Z" fill="#163F31"/>
</g>
<defs>
<clipPath id="clip0">
<rect width="108" height="18" fill="white"/>
</clipPath>
</defs>
</svg>
