<svg width="141" height="25" viewBox="0 0 141 25" fill="none" xmlns="http://www.w3.org/2000/svg">
<path d="M14.8148 5.64622V10.3061H9.0621V3.27441H6.54368L6.23118 3.27197C5.1095 3.27197 4.20068 4.1879 4.20068 5.31827V5.8449V21.6577H9.0621V13.783H14.8148V21.6577H19.6763V3.27441H17.0507L16.8377 3.27197C15.716 3.27197 14.8072 4.1879 14.8072 5.31827L14.8148 5.64622Z" fill="#3B130D" stroke="#3B130D" stroke-width="0.4755"/>
<path d="M55.5539 3.27462H59.5974V21.6579H55.3583L55.3825 10.9645L55.4066 10.9891L51.7944 21.6577H47.3246L43.9765 11.014V11.0392L43.9521 21.6579H39.7647V5.65261L39.7593 5.3106C39.7593 4.24739 40.5634 3.37424 41.594 3.27368L41.9967 3.27481H45.8338L49.7028 14.961H49.7551L53.282 4.85976L53.3748 4.5866C53.6688 3.82095 54.4063 3.27743 55.2702 3.27743L55.5539 3.27462Z" fill="#3B130D" stroke="#3B130D" stroke-width="0.4755"/>
<path d="M63.7287 3.27441H74.0114V6.75126H66.0121V10.5439H73.5676V14.0196H66.0121V18.1814H74.2987V21.6577H61.1494V5.9115L61.1503 5.31827C61.1503 4.1879 62.0607 3.27197 63.1823 3.27197L63.7287 3.27441Z" fill="#3B130D" stroke="#3B130D" stroke-width="0.4755"/>
<path d="M127.576 3.27441H137.859V6.75126H129.86V10.5439H137.415V14.0196H129.86V18.1814H138.147V21.6577H124.997V5.9115L124.999 5.31827C124.999 4.1879 125.908 3.27197 127.029 3.27197L127.576 3.27441Z" fill="#3B130D" stroke="#3B130D" stroke-width="0.4755"/>
<path d="M80.701 13.8618H82.1912C83.864 13.8618 85.7729 14.0466 85.7729 16.0475C85.7729 17.9177 83.9161 18.1815 82.1387 18.1815H80.7008V13.8618H80.701ZM75.8379 5.95771V21.6579H83.5247C86.7925 21.6579 90.6361 20.7362 90.6361 16.3378C90.6361 14.0984 89.3804 12.7819 86.9497 12.2821V12.2289C88.9887 11.5443 90.1652 10.2539 90.1652 7.93609C90.1652 4.77594 87.6285 3.27466 84.2305 3.27466H78.7556L77.8747 3.27222C76.7532 3.27222 75.8429 4.18814 75.8429 5.31851L75.8379 5.95771ZM80.701 6.75131H82.1132C83.7338 6.75131 85.3022 6.90891 85.3022 8.5948C85.3022 10.149 83.6548 10.5439 82.0607 10.5439H80.701V6.75131Z" fill="#3B130D" stroke="#3B130D" stroke-width="0.4755"/>
<path d="M102.855 3.27441H98.7828L98.2878 3.27197C97.3762 3.27197 96.6048 3.87702 96.348 4.70984L96.2436 4.99933L89.9658 21.6579H94.9064L96.3447 17.7341H103.194L104.553 21.6579H109.887L102.855 3.27441ZM97.4686 14.2563L99.8218 7.06757H99.874L102.044 14.2563H97.4686Z" fill="#3B130D" stroke="#3B130D" stroke-width="0.4755"/>
<path d="M111.105 17.1282C112.36 17.8122 114.111 18.3394 116.125 18.3394C117.667 18.3394 119.131 18.0229 119.131 16.5484C119.131 13.1251 110.504 15.2849 110.504 8.59495C110.504 4.17029 114.791 2.9585 118.451 2.9585C120.203 2.9585 121.929 3.22228 123.157 3.64385L122.843 7.43588C121.589 6.85691 120.178 6.59256 118.792 6.59256C117.563 6.59256 115.524 6.698 115.524 8.30528C115.524 11.2814 124.151 9.27937 124.151 15.9166C124.151 20.6829 120.178 21.9738 116.125 21.9738C114.425 21.9738 112.308 21.7104 110.688 21.1838L111.105 17.1282Z" fill="#3B130D" stroke="#3B130D" stroke-width="0.4755"/>
<path d="M29.6848 22.096C34.8563 22.096 39.0487 17.8725 39.0487 12.6626C39.0487 7.45271 34.8563 3.22925 29.6848 3.22925C24.5132 3.22925 20.3208 7.45271 20.3208 12.6626C20.3208 17.8725 24.5132 22.096 29.6848 22.096Z" fill="#3B130D"/>
</svg>
