<svg width="129" height="31" viewBox="0 0 129 31" fill="none" xmlns="http://www.w3.org/2000/svg">
<g clip-path="url(#clip0)">
<path d="M14.4945 0.298074C14.7889 0.103059 15.1346 -0.000976563 15.4882 -0.000976562C15.8418 -0.000976562 16.1875 0.103059 16.4819 0.298074C18.0078 1.25777 19.474 2.30851 20.8725 3.44454C20.8725 3.44454 21.2528 3.70716 21.2629 3.26272C21.224 2.68856 21.2563 2.11181 21.3592 1.54555C21.4137 1.39657 21.5131 1.26804 21.6438 1.17761C21.7745 1.08717 21.9302 1.03928 22.0893 1.0405C22.0893 1.0405 23.8131 1.12636 24.9082 1.27282C25.1424 1.31036 25.3577 1.42369 25.5209 1.59531C25.684 1.76693 25.7858 1.98728 25.8107 2.22232C25.8107 2.22232 26.5154 6.89908 26.6725 8.58595C26.6725 8.58595 26.8094 9.44454 28.0566 10.8991C28.0566 10.8991 30.5916 14.4344 30.8857 15.1112C30.8857 15.1112 31.4789 16.3385 30.2114 16.5001C30.2114 16.5001 27.8944 16.7324 27.6764 16.788C27.527 16.8045 27.3901 16.8789 27.2952 16.9952C27.2004 17.1114 27.1552 17.2601 27.1694 17.4092C27.1694 17.4092 27.0477 25.5405 26.4495 29.4496C26.4495 29.4496 26.2923 31.0001 25.4355 30.9647C25.4355 30.9647 23.0577 30.889 22.5101 30.9041C22.5101 30.9041 22.2668 30.9041 22.3073 30.586C22.3073 30.586 23.519 17.8991 22.6926 11.4849C22.6926 11.4849 22.6622 10.6567 22.0234 10.4748C22.0234 10.4748 21.4505 10.2425 20.8928 10.9799C18.4763 14.333 17.1572 18.3473 17.1157 22.4748C17.1157 22.4748 17.0447 24.495 17.359 25.0001C17.359 25.0001 17.5517 25.3536 18.5353 25.4344L19.7825 25.6011C19.7825 25.6011 20.0157 25.6011 19.9954 25.9041C19.9954 25.9041 19.7064 29.6264 19.6253 30.288C19.6204 30.4386 19.5895 30.5872 19.534 30.7274C19.534 30.7274 19.4884 30.8536 19.098 30.8385C19.098 30.8385 13.6073 30.7981 13.0141 30.8385C13.0141 30.8385 12.7555 30.8385 12.6997 30.7021C12.644 30.5658 12.3195 25.8991 12.3296 25.2375C12.325 25.1698 12.3409 25.1024 12.3753 25.0438C12.4096 24.9853 12.4609 24.9384 12.5223 24.9092C12.9419 24.6468 13.2966 24.2934 13.56 23.8754C13.8234 23.4574 13.9886 22.9855 14.0433 22.495C14.1092 21.7865 14.1194 21.0739 14.0737 20.3637C14.0737 20.3637 14.2765 13.2274 14.3272 12.0809C14.3272 12.0809 14.3678 11.6971 13.8608 11.6213C13.8005 11.607 13.738 11.6047 13.6769 11.6145C13.6157 11.6243 13.5571 11.646 13.5044 11.6784C13.4516 11.7107 13.4058 11.7531 13.3695 11.8031C13.3333 11.8531 13.3072 11.9098 13.2929 11.9698C13.2929 11.9698 13.2929 12.0001 13.2929 12.0102C13.2929 12.0203 12.938 16.7173 13.0039 18.5759C13.0039 18.5759 13.1256 19.793 12.2789 19.8183C12.2789 19.8183 11.4525 19.9395 11.417 18.9294C11.417 18.9294 11.4779 14.3486 11.6807 12.091C11.6814 11.9661 11.6357 11.8454 11.5524 11.7522C11.4691 11.6589 11.354 11.5997 11.2295 11.586C11.1001 11.5682 10.9689 11.6008 10.8632 11.677C10.7574 11.7532 10.6852 11.8671 10.6616 11.995C10.6616 11.995 10.6616 12.0253 10.6616 12.0354C10.6616 12.0455 10.3067 16.4142 10.3726 18.7274C10.3726 18.7274 10.474 19.8486 9.57665 19.8082C9.57665 19.8082 8.8263 19.8991 8.78574 18.8991C8.78574 18.8991 8.9936 12.6314 9.0443 12.1466C9.05127 12.0142 9.00574 11.8845 8.91753 11.7852C8.82933 11.686 8.70552 11.6253 8.5728 11.6163H8.5221C8.39612 11.6055 8.27064 11.642 8.17027 11.7186C8.06991 11.7952 8.00191 11.9064 7.97961 12.0304C7.97961 12.0304 7.97961 12.0607 7.97961 12.0759C7.97961 12.091 7.645 19.5708 7.69063 21.7728C7.69063 21.7728 7.66021 24.0354 9.33836 24.9546C9.33836 24.9546 9.58679 25.0961 9.59186 25.3132C9.59186 25.3132 9.77945 29.293 9.95183 30.5708C9.95183 30.5708 10.0127 30.8789 9.73889 30.8789L5.52068 30.995C5.52068 30.995 4.82103 31.0455 4.65879 30.1819C4.10417 25.9726 3.83992 21.7303 3.86788 17.4849C3.8827 17.3278 3.83933 17.1708 3.74594 17.0433C3.65255 16.9159 3.5156 16.8268 3.36088 16.793C3.36088 16.793 1.20108 16.591 0.678875 16.4647C0.564564 16.437 0.456929 16.3869 0.362231 16.3174C0.267534 16.2479 0.187667 16.1602 0.127276 16.0597C0.0668854 15.9591 0.0271779 15.8475 0.0104641 15.7315C-0.00624977 15.6155 0.000363828 15.4974 0.02992 15.3839C0.0463339 15.3009 0.0790722 15.222 0.126249 15.1516C3.63657 9.11369 8.56752 4.01619 14.4945 0.298074Z" fill="#3C2008"/>
<path d="M44.2353 12.0706H40.0526C38.6989 12.0706 38.6989 12.0706 38.42 13.6413C38.1412 15.212 38.1361 15.2675 39.3783 15.2675H41.8575L40.4632 23.2877C40.1235 25.0807 39.3377 26.318 36.9143 27.0453C36.2957 27.212 36.1284 27.4392 36.1284 27.717C36.1636 28.1674 36.2913 28.6057 36.5036 29.0049C36.8991 29.9594 37.1221 30.1261 37.4618 30.1261C37.8619 30.0902 38.2575 30.0157 38.6431 29.9039C42.0805 28.7877 43.5052 26.1463 44.068 23.0049L45.6295 13.9746C45.9084 12.0706 45.9084 12.0706 44.2201 12.0706" fill="#3C2008"/>
<path d="M58.3702 12.0706C56.6819 12.0706 56.6819 12.0706 56.4538 13.4746L55.2167 20.7675C54.877 22.8988 54.3142 24.1312 52.2305 24.1312C50.1467 24.1312 49.4724 22.8988 49.8071 20.9897L50.9884 14.0352C51.328 12.0706 51.2723 12.0706 49.5231 12.0706C47.774 12.0706 47.7791 12.0706 47.5509 13.419L46.3139 20.7069C45.5838 24.8635 48.1644 27.4443 51.83 27.4443C55.9417 27.4443 58.0255 25.5958 58.6998 21.217L59.9368 13.9796C60.2258 12.0706 60.1143 12.0706 58.3702 12.0706Z" fill="#3C2008"/>
<path d="M66.0818 24.0202C67.4355 23.9646 68.1656 23.3484 68.1656 22.7323C68.1656 21.9494 67.2074 21.6666 65.9145 21.2727C63.3796 20.4899 61.0727 19.5909 61.0727 16.8989C61.0727 13.702 63.7192 11.9646 67.0401 11.9646C68.4495 11.9646 70.0263 12.0202 71.0403 12.1313C71.9427 12.2424 72.1658 12.5252 71.8869 13.9242C71.6081 15.3232 71.2684 15.4393 70.4775 15.3838C69.5193 15.3282 68.2822 15.2171 66.817 15.2171C65.1287 15.2171 64.6217 15.8333 64.6217 16.3939C64.6217 17.1212 65.296 17.5151 66.8728 17.9646C69.8032 18.808 71.7146 19.9848 71.7146 22.5101C71.7146 25.4848 69.5193 27.2222 65.9703 27.3333C64.2752 27.3933 62.5781 27.2986 60.9003 27.0505C59.7748 26.8838 59.719 26.8838 59.9979 25.2575C60.2818 23.7979 60.2818 23.6868 61.3516 23.7979C62.92 23.9957 64.5017 24.07 66.0818 24.0202Z" fill="#3C2008"/>
<path d="M84.4957 12.0705H74.9794C73.6257 12.0705 73.6257 12.0705 73.3468 13.6967C73.068 15.323 73.1238 15.323 74.3051 15.323H77.4028L75.6587 25.3634C75.3191 27.3281 75.3748 27.3281 77.124 27.3281C78.7565 27.3281 78.8123 27.3281 79.0404 25.924L80.8402 15.318H83.8264C85.1801 15.318 85.1801 15.318 85.459 13.6917C85.7378 12.0654 85.7327 12.0654 84.4957 12.0654" fill="#3C2008"/>
<path d="M101.277 15.2677C102.631 15.2677 102.631 15.2677 102.91 13.6414C103.189 12.0151 103.194 12.0151 101.951 12.0151H95.1374C92.714 12.0151 92.7748 12.0151 92.3794 14.4293L90.6353 24.5808C90.1841 27.2172 90.2398 27.2172 92.6633 27.2172H99.31C100.719 27.2172 100.664 27.2172 100.943 25.6465C101.221 24.0757 101.226 24.0202 99.9843 24.0202H94.24L94.6913 21.101H99.4773C100.77 21.101 100.77 21.101 100.998 19.5858C101.226 18.0707 101.221 18.0151 99.4773 18.0151H95.254L95.7052 15.2677H101.277Z" fill="#3C2008"/>
<path d="M108.497 20.6565L110.692 15.8333C110.86 15.4394 110.86 15.4394 111.144 15.4394C111.427 15.4394 111.427 15.4394 111.483 15.8889L112.158 20.6565H108.497ZM114.464 13.9242C114.125 12.0151 114.125 12.0151 111.422 12.0151C108.887 12.0151 108.943 12.0151 108.157 13.5858L102.454 25.4192C101.607 27.101 101.779 27.2677 103.863 27.2677C105.496 27.2677 105.496 27.2677 106.17 25.7525L107.072 23.7323H112.588L112.872 25.7525C113.095 27.2677 113.156 27.2677 114.789 27.2677C116.644 27.2677 116.817 27.1565 116.477 25.303L114.464 13.9242Z" fill="#3C2008"/>
<path d="M127.91 12.0705H118.338C116.984 12.0705 116.984 12.0705 116.705 13.6967C116.426 15.323 116.482 15.323 117.663 15.323H120.761L119.017 25.3634C118.677 27.3281 118.733 27.3281 120.482 27.3281C122.115 27.3281 122.171 27.3281 122.399 25.924L124.199 15.318H127.185C128.539 15.318 128.539 15.318 128.817 13.6917C129.096 12.0654 129.147 12.0654 127.91 12.0654" fill="#3C2008"/>
</g>
<defs>
<clipPath id="clip0">
<rect width="129" height="31" fill="white"/>
</clipPath>
</defs>
</svg>
