<svg width="100" height="27" viewBox="0 0 100 27" fill="none" xmlns="http://www.w3.org/2000/svg">
<g clip-path="url(#clip0)">
<path d="M94.6505 12.8532L100 26.9735C98.4234 26.7491 96.8478 26.4679 95.2433 26.2145L92.2298 18.4125L89.1334 25.5705C87.6136 25.3172 86.1208 25.2328 84.6009 25.0361L90.0343 12.6853L85.1063 0.0263672H89.6676L92.4261 7.09912L95.3829 0.0263672H99.9991L94.6505 12.8532ZM81.5046 0.0263672H77.3658V24.5034C78.7172 24.5879 80.1243 24.6435 81.5046 24.8115V0.0263672ZM73.7901 24.2223C70.0181 23.9698 66.2451 23.7462 62.3883 23.6609V0.0264756H66.6109V19.6753C69.0325 19.7311 71.4532 19.9269 73.7901 20.0392V24.2223ZM57.8829 9.59888V13.8089H52.1118V23.3806H47.9461V0.0263672H59.7703V4.2364H52.1127V9.59899H57.8838L57.8829 9.59888ZM40.8505 4.2364V23.6051C39.4424 23.6051 38.0074 23.6051 36.6271 23.6609V4.2364H32.2632V0.0263672H45.2414V4.2364H40.8505ZM27.7029 14.0326C25.8452 14.0326 23.6487 14.0326 22.0722 14.118V20.3769C24.5497 20.208 27.0271 20.0122 29.5324 19.9278V23.9698L17.8497 24.8968V0.0263672H29.5317V4.2364H22.0721V9.90697C23.7054 9.90697 26.2108 9.8226 27.7027 9.8226V14.0335L27.7029 14.0326ZM4.30637 11.6747V26.3834C2.78745 26.5522 1.43517 26.749 0 26.9735V0.0263672H4.02619L9.51549 15.3253V0.0263672H13.7389V25.2328C12.2469 25.4861 10.7263 25.5705 9.12176 25.7942L4.30637 11.6747Z" fill="#3B130D"/>
</g>
<defs>
<clipPath id="clip0">
<rect width="100" height="27" fill="white"/>
</clipPath>
</defs>
</svg>
