<svg width="66" height="58" viewBox="0 0 66 58" fill="none" xmlns="http://www.w3.org/2000/svg">
<path d="M11.7962 58C11.7196 57.8333 11.8379 57.6859 11.8866 57.5385C13.014 54.2137 14.1507 50.8889 15.2967 47.5641C16.5216 43.9829 17.7487 40.3974 18.9782 36.8077C18.9749 36.7714 18.9749 36.735 18.9782 36.6987C19.0965 36.4359 19.0826 36.359 18.7347 36.2244C18.7347 36.2244 18.672 36.2756 18.6581 36.3013C17.8903 38.0638 16.8109 39.697 15.4637 41.1346C14.8188 41.8568 14.1415 42.5491 13.4316 43.2115C13.3451 43.288 13.2779 43.381 13.2346 43.484C13.1913 43.587 13.173 43.6975 13.1811 43.8077C13.1811 45.3846 13.1811 46.9679 13.1811 48.5449C13.1811 48.6282 13.1811 48.7179 13.1811 48.8077C13.1811 48.8974 13.1184 49.0449 12.9236 49.0385C12.4155 49.0385 11.9005 49.0385 11.3855 49.0385H8.50436C8.18423 49.0385 8.18423 49.0385 8.17727 48.7244V48.5C8.17727 42.2607 8.17727 36.0235 8.17727 29.7885C8.19229 29.6483 8.16595 29.507 8.10103 29.3795C8.03611 29.2521 7.93501 29.1431 7.80842 29.0641C5.31001 27.4615 2.81855 25.859 0.327091 24.2244L0 24C0.151041 23.9585 0.309175 23.9432 0.466279 23.9551H7.91282C8.20511 23.9551 8.21207 23.9551 8.21903 23.6859V17.3718C8.35822 17.3141 8.42781 17.3718 8.51132 17.4167C9.31165 17.8013 10.1189 18.1731 10.9193 18.5641C13.3908 19.7548 15.4789 21.5234 16.9739 23.6923C17.0191 23.7737 17.0895 23.841 17.1763 23.8855C17.263 23.93 17.3621 23.9498 17.4611 23.9423C18.5815 23.9423 19.702 23.9423 20.8225 23.9423C21.2609 23.9423 21.1844 23.8974 21.1844 23.5897V17.6731C21.1648 17.5199 21.1814 17.3647 21.2331 17.2179C22.775 17.8902 24.2675 18.6546 25.701 19.5064C28.0741 12.9744 30.4543 6.5 32.8622 0C32.9541 0.0803964 33.0152 0.186136 33.0362 0.301282C35.1797 6.04914 37.3255 11.7991 39.4736 17.5513C39.4736 17.6346 39.5362 17.7179 39.5641 17.8013C39.571 17.8444 39.596 17.8834 39.6337 17.9098C39.6715 17.9361 39.7189 17.9478 39.7659 17.9423H44.7627C44.881 17.9423 44.9437 17.9872 44.9437 18.0962V22.3077C44.9437 22.3974 44.9437 22.4872 44.9437 22.5705C44.9448 22.589 44.9415 22.6075 44.9341 22.6248C44.9267 22.642 44.9154 22.6575 44.9008 22.6703C44.8863 22.6831 44.8689 22.6929 44.8498 22.6989C44.8308 22.7049 44.8106 22.707 44.7906 22.7051H41.8259C41.6779 22.6899 41.5282 22.7052 41.3874 22.75L41.805 23.8654C41.8537 23.9936 41.9651 23.9744 42.0695 23.9744H49.6413C49.7735 23.9744 49.8361 23.9295 49.8361 23.8013C49.8361 23.4936 49.8361 23.1603 49.8361 22.8718C49.8361 22.7628 49.7874 22.7115 49.6691 22.7115H46.3912C46.0989 22.7115 46.092 22.7115 46.092 22.4487C46.092 21.032 46.092 19.6154 46.092 18.1987C46.092 18 46.1546 17.9423 46.3634 17.9423C47.1637 17.9423 47.9571 17.9423 48.7505 17.9423H58.4936C58.6815 17.9423 58.7789 17.9872 58.7511 18.1667V22.3846C58.7511 22.6987 58.7511 22.7051 58.3962 22.7051H55.334C55.0209 22.7051 55.0209 22.7051 55.0139 22.9936C55.0069 23.2821 55.0139 23.5128 55.0139 23.7756C55.0139 23.9167 55.0696 23.9808 55.2296 23.9679H65.7314V24.0321L65.3903 24.2692C62.0498 26.4359 58.707 28.6004 55.3619 30.7628C55.2418 30.828 55.1434 30.9222 55.0771 31.0352C55.0109 31.1481 54.9794 31.2756 54.9861 31.4038C54.9861 37.1218 54.9861 42.8397 54.9861 48.5577C54.9861 49.0769 55.0557 49.0128 54.4989 49.0192H50.9566C51.2698 50.0449 51.6525 51.0256 51.9657 52.0064C52.2789 52.9872 52.6616 53.9744 52.9748 54.9551C53.288 55.9359 53.6707 56.9359 53.9978 57.9423C53.8655 57.9393 53.7391 57.8914 53.6429 57.8077L39.1256 49.2756C38.859 49.1096 38.5427 49.0245 38.2209 49.0321C37.1561 49.0321 36.0913 49.0321 35.0266 49.0321C34.5533 49.0321 34.5812 49.0769 34.5812 48.641C34.5812 48.0641 34.5812 47.4936 34.5812 46.9231C34.5957 46.8269 34.5773 46.729 34.5287 46.6428C34.4801 46.5567 34.4035 46.4866 34.3097 46.4423C33.9687 46.2692 33.6486 46.0641 33.3006 45.8654C33.2436 45.9727 33.2242 46.0936 33.245 46.2115C33.245 47.0833 33.245 47.9487 33.245 48.8205C33.245 49.1154 33.245 49.1154 32.9318 49.0962C31.5023 49.0511 30.095 48.7575 28.784 48.2308C28.5683 48.1346 28.4291 48.2308 28.269 48.3205L24.2813 50.6667L12.0676 57.8462C11.9871 57.91 11.8919 57.956 11.7892 57.9808L11.7962 58ZM25.1234 43.8974H25.1999L25.4713 44.2949C26.1287 45.3434 27.0456 46.2341 28.1473 46.8947C29.2489 47.5552 30.5043 47.9669 31.8113 48.0962C32.1732 48.1346 32.1802 48.1346 32.1802 47.8077V45.7564C32.1802 45.4295 32.1802 45.4231 31.8322 45.3462C30.7605 45.1011 29.759 44.6454 28.8965 44.0102C28.034 43.3751 27.3309 42.5756 26.8354 41.6667C26.7821 41.5963 26.7603 41.5097 26.7746 41.425C26.7888 41.3402 26.838 41.2638 26.9119 41.2115C27.2599 40.8654 27.6079 40.5064 27.9141 40.141C28.855 39.148 29.6634 38.0547 30.322 36.8846C31.4488 34.6477 31.8034 32.1463 31.3381 29.718C30.9575 27.4617 29.9965 25.322 28.5352 23.4776C27.0739 21.6331 25.1548 20.1374 22.9381 19.1154L22.1726 18.7436V47.7179C22.1726 47.9808 22.1726 47.9872 22.4649 47.9872H24.8102C25.1164 47.9872 25.1234 47.9872 25.1234 47.6987C25.1234 46.5897 25.1234 45.4872 25.1234 44.3782V43.8974ZM9.2003 18.8782V47.5897C9.2003 47.6603 9.2003 47.7372 9.2003 47.8141C9.2003 48.0833 9.2003 48.0833 9.48564 48.0897H11.9841C12.1302 48.0897 12.2137 48.0513 12.1998 47.8974C12.1859 47.7436 12.1998 47.7244 12.1998 47.6346C12.1998 46.2179 12.1998 44.8077 12.1998 43.391C12.1964 43.2811 12.2182 43.1718 12.2638 43.0702C12.3093 42.9686 12.3776 42.8769 12.4643 42.8013C13.8219 41.5319 15.0582 40.1572 16.1597 38.6923C17.1902 37.3541 17.9111 35.8351 18.2774 34.2295C18.6438 32.6239 18.6478 30.9661 18.2893 29.359C17.8509 27.084 16.8125 24.9432 15.2653 23.1246C13.7181 21.306 11.7094 19.8654 9.41604 18.9295C9.34524 18.9087 9.27321 18.8915 9.2003 18.8782ZM35.5833 33.4872V47.6538C35.5833 48.1154 35.5137 48.0833 36.0287 48.0833H43.5588C43.9067 48.0833 43.9137 48.0833 43.9137 47.7628V46.3846C43.9137 46.0577 43.9137 45.7436 43.9137 45.4167C43.9137 45.2692 43.858 45.2115 43.7049 45.2179C43.5518 45.2244 43.51 45.2179 43.4196 45.2179H39.0491C38.715 45.2179 38.715 45.2179 38.715 44.9103C38.715 44 38.715 43.0962 38.715 42.1859C38.715 41.7436 38.6663 41.7949 39.1465 41.7949H43.5588C43.9067 41.7949 43.9137 41.7949 43.9137 41.4679V39.2564C43.9137 38.9423 43.9137 38.9359 43.5518 38.9359H39.1813C38.6454 38.9359 38.715 38.9936 38.715 38.4936C38.715 33.0662 38.715 27.6368 38.715 22.2051C38.715 21.7051 38.6802 21.7756 39.2022 21.7756H43.5727C43.9137 21.7756 43.9207 21.7756 43.9207 21.4808V19.1795C43.9207 18.9038 43.9207 18.8974 43.6005 18.8974H35.9452C35.6251 18.8974 35.6251 18.8974 35.6181 19.1731V33.4872H35.5833ZM50.894 34.9487V47.7692C50.894 48.1346 50.8522 48.1154 51.2558 48.1154H53.4828C53.9909 48.1154 53.9909 48.1154 53.9909 47.641V22.2628C53.9909 22.1474 53.9909 22.0385 53.9909 21.9231C53.9909 21.8077 54.0535 21.7436 54.1857 21.75C54.318 21.7564 54.3736 21.75 54.4711 21.75H57.3871C57.8116 21.75 57.7698 21.75 57.7698 21.3782C57.7698 20.6859 57.7698 19.9872 57.7698 19.2949C57.7698 18.8782 57.8325 18.8974 57.3314 18.8974H47.3586C47.1568 18.8974 47.1011 18.9679 47.108 19.141C47.108 19.9231 47.108 20.7051 47.108 21.4872C47.108 21.75 47.108 21.7564 47.4073 21.7564H50.4068C50.9287 21.7564 50.8661 21.7051 50.8661 22.2051C50.8754 26.453 50.8777 30.7009 50.8731 34.9487H50.894ZM49.8431 34.4359C49.711 34.4566 49.5893 34.5148 49.4951 34.6026L46.9828 36.2308C46.6626 36.4359 46.6626 36.4359 46.7879 36.7949C47.753 39.6154 48.718 42.4316 49.683 45.2436C49.7136 45.3608 49.7679 45.4717 49.8431 45.5705V34.4359Z" fill="#163F31"/>
<path d="M57.5673 47.5895C57.5686 47.7861 57.5062 47.9786 57.388 48.1423C57.2698 48.306 57.1012 48.4335 56.9039 48.5084C56.7065 48.5833 56.4894 48.6022 56.2803 48.5627C56.0712 48.5232 55.8797 48.4271 55.7303 48.2867C55.5808 48.1464 55.4803 47.9681 55.4416 47.7747C55.4029 47.5814 55.4277 47.3818 55.5129 47.2015C55.5981 47.0213 55.7398 46.8686 55.9198 46.7629C56.0999 46.6573 56.31 46.6036 56.5234 46.6087C56.8022 46.6138 57.0677 46.7193 57.2628 46.9027C57.458 47.0861 57.5674 47.3327 57.5673 47.5895ZM56.0014 47.5895C55.9945 47.7006 55.9945 47.8119 56.0014 47.9229C56.0014 48.0383 55.911 48.2434 56.1406 48.237C56.3703 48.2306 56.2311 48.0447 56.252 47.9357C56.2729 47.8267 56.252 47.7819 56.3703 47.769C56.4099 47.7604 56.4516 47.7655 56.4875 47.7832C56.5233 47.8009 56.551 47.83 56.5651 47.8652C56.6278 47.9742 56.6904 48.0832 56.76 48.1921C56.7828 48.2236 56.8174 48.2463 56.8572 48.2558C56.897 48.2652 56.9392 48.2608 56.9758 48.2434C57.0871 48.2049 57.0245 48.1216 56.9758 48.0639C56.9047 47.9959 56.8651 47.9051 56.8651 47.8107C56.8651 47.7163 56.9047 47.6255 56.9758 47.5575C57.0204 47.5033 57.048 47.4389 57.0556 47.3712C57.0632 47.3036 57.0506 47.2353 57.019 47.1738C56.9874 47.1124 56.9381 47.06 56.8765 47.0226C56.8149 46.9851 56.7433 46.9639 56.6695 46.9613C55.9736 46.8716 55.9736 46.9164 55.9736 47.5126L56.0014 47.5895Z" fill="#163F31"/>
<path d="M25.1445 39.3011V23.8716C25.3742 24.0703 25.6108 24.237 25.7987 24.4357C27.0692 25.8162 27.9278 27.4775 28.2902 29.2562C28.6366 30.7179 28.6479 32.2302 28.3231 33.6961C27.9983 35.162 27.3447 36.5493 26.4042 37.7691C26.0189 38.3031 25.5982 38.8148 25.1445 39.3011Z" fill="#163F31"/>
<path d="M12.1929 39.3715V23.9871C12.3181 23.9871 12.3599 24.0704 12.4156 24.1217C13.6963 25.3277 14.6169 26.8182 15.088 28.4486C15.5888 29.9571 15.7238 31.5485 15.4833 33.1103C15.2427 34.6721 14.6326 36.1662 13.6961 37.4869C13.2902 38.0755 12.8488 38.6427 12.3738 39.1856C12.346 39.2562 12.2903 39.2562 12.1929 39.3715ZM13.195 36.2626C13.7094 35.5288 14.0793 34.7173 14.2877 33.8652C14.4129 33.3716 14.4129 33.3652 13.9397 33.0639L13.4456 32.7434C13.376 32.6985 13.3133 32.6088 13.195 32.6729V36.2626Z" fill="#163F31"/>
<path d="M56.4819 47.4864C56.3638 47.4864 56.2526 47.4864 56.2596 47.32C56.2665 47.1536 56.4125 47.1664 56.5375 47.16C56.6626 47.1536 56.7877 47.16 56.8085 47.3072C56.8294 47.4544 56.7182 47.4928 56.4819 47.4864Z" fill="#163F31"/>
</svg>
