<svg width="75" height="47" viewBox="0 0 75 47" fill="none" xmlns="http://www.w3.org/2000/svg">
<g clip-path="url(#clip0)">
<path d="M1.07836 27.448C0.876796 27.4574 0.678984 27.3906 0.525234 27.26C0.393984 27.103 0.333046 26.899 0.356484 26.696V7.51997C0.333046 7.31693 0.393984 7.11295 0.525234 6.95597C0.680859 6.83753 0.873984 6.78113 1.06898 6.79617H3.15023C3.54398 6.75669 3.89836 7.03399 3.95648 7.42597L4.16273 8.17797C4.7618 7.59799 5.46961 7.14115 6.24398 6.83377C7.03617 6.51229 7.88273 6.34591 8.73773 6.34497C10.4421 6.28857 12.0715 7.04903 13.1252 8.39417C14.2859 9.99781 14.8624 11.9521 14.7565 13.9308C14.7884 15.3671 14.5137 16.7931 13.9502 18.1138C13.4852 19.2136 12.7296 20.1658 11.7659 20.868C10.834 21.5053 9.72492 21.8343 8.59711 21.808C7.83117 21.8117 7.06992 21.6848 6.34711 21.432C5.68242 21.2083 5.06836 20.8567 4.53773 20.398V26.7148C4.55836 26.9159 4.50211 27.118 4.37836 27.2788C4.21805 27.4029 4.01648 27.4593 3.81586 27.4386L1.07836 27.448ZM7.38773 18.6496C8.31398 18.7163 9.21023 18.3008 9.75961 17.5498C10.3437 16.4989 10.608 15.2994 10.519 14.1C10.609 12.8893 10.3484 11.6785 9.76898 10.6126C9.21773 9.85399 8.31211 9.43757 7.37836 9.51277C6.38742 9.51371 5.41617 9.78255 4.56586 10.293V17.86C5.40961 18.3864 6.38461 18.6627 7.37836 18.659L7.38773 18.6496Z" fill="#3B130D"/>
<path d="M18.3188 21.5072C17.9832 21.5702 17.6598 21.3484 17.597 21.0109C17.5829 20.9357 17.5829 20.8586 17.597 20.7834V7.52002C17.5735 7.31698 17.6345 7.113 17.7657 6.95602C17.9213 6.83758 18.1145 6.78118 18.3095 6.79622H20.3813C20.7751 6.75674 21.1295 7.03404 21.1876 7.42602L21.5626 8.96762C22.1785 8.24476 22.9145 7.63376 23.7376 7.16282C24.4088 6.81032 25.1551 6.62702 25.9126 6.62702H26.3157C26.5192 6.60916 26.7226 6.66556 26.8876 6.78682C27.0188 6.9438 27.0798 7.14778 27.0563 7.35082V9.77602C27.0723 9.97154 27.016 10.1652 26.897 10.3212C26.7404 10.4528 26.537 10.5139 26.3345 10.4904H25.8188C25.606 10.4904 25.3379 10.4904 25.0126 10.4904C24.4707 10.5017 23.9307 10.5647 23.4001 10.6784C22.847 10.7809 22.307 10.9416 21.7876 11.1578V20.7928C21.8026 20.9883 21.7463 21.182 21.6282 21.338C21.4717 21.4696 21.2682 21.5307 21.0657 21.5072H18.3188Z" fill="#3B130D"/>
<path d="M31.2096 4.50268C30.5702 4.53464 29.9431 4.31938 29.4565 3.90108C29.0046 3.47714 28.7618 2.87554 28.7909 2.25608C28.759 1.63286 29.0018 1.0275 29.4565 0.601683C30.484 -0.222697 31.9446 -0.222697 32.9721 0.601683C33.424 1.02562 33.6668 1.62722 33.6378 2.24668C33.6668 2.86614 33.424 3.46774 32.9721 3.89168C32.4846 4.31562 31.8537 4.53464 31.2096 4.50268ZM29.8315 21.5167C29.4959 21.5797 29.1724 21.3578 29.1096 21.0204C29.0956 20.9452 29.0956 20.8681 29.1096 20.7929V7.52008C29.0862 7.31704 29.1471 7.11306 29.2784 6.95608C29.434 6.83764 29.6271 6.78124 29.8221 6.79628H32.5877C32.7884 6.7756 32.9899 6.832 33.1503 6.95608C33.274 7.11682 33.3302 7.31892 33.3096 7.52008V20.7929C33.3256 20.9884 33.2693 21.182 33.1503 21.3381C32.9937 21.4697 32.7902 21.5308 32.5877 21.5073L29.8315 21.5167Z" fill="#3B130D"/>
<path d="M37.5937 21.5072C37.2581 21.5702 36.9347 21.3484 36.8719 21.0109C36.8578 20.9357 36.8578 20.8586 36.8719 20.7834V7.52003C36.8484 7.31699 36.9094 7.11301 37.0406 6.95603C37.1962 6.83759 37.3894 6.78119 37.5844 6.79623H39.6562C40.05 6.75675 40.4044 7.03405 40.4625 7.42603L40.6969 8.20623C41.55 7.61685 42.4725 7.13745 43.4437 6.77743C44.2453 6.49731 45.0881 6.35161 45.9375 6.34503C47.415 6.21813 48.8344 6.94851 49.5938 8.22503C50.4497 7.63471 51.3797 7.16095 52.3594 6.81503C53.2238 6.52645 54.1294 6.38075 55.0406 6.38263C56.1919 6.31307 57.3206 6.72103 58.1625 7.51063C58.9388 8.36415 59.3381 9.49685 59.2688 10.6502V20.7928C59.2838 20.9883 59.2275 21.182 59.1094 21.338C58.9528 21.4696 58.7494 21.5307 58.5469 21.5072H55.8188C55.4831 21.5702 55.1597 21.3484 55.0969 21.0109C55.0828 20.9357 55.0828 20.8586 55.0969 20.7834V11.5338C55.0969 10.2244 54.5128 9.56923 53.3438 9.56923C52.2544 9.58145 51.1809 9.83901 50.2031 10.3212V20.7928C50.2191 20.9883 50.1628 21.182 50.0438 21.338C49.8872 21.4696 49.6838 21.5307 49.4812 21.5072H46.725C46.3894 21.5702 46.0659 21.3484 46.0031 21.0109C45.9891 20.9357 45.9891 20.8586 46.0031 20.7834V11.5338C46.0031 10.2244 45.4191 9.56923 44.25 9.56923C43.1475 9.57581 42.0619 9.84371 41.0812 10.3494V20.7834C41.0962 20.9789 41.04 21.1726 40.9219 21.3286C40.7653 21.4602 40.5619 21.5213 40.3594 21.4978L37.5937 21.5072Z" fill="#3B130D"/>
<path d="M69.2998 21.9396C67.2795 22.0721 65.2948 21.3615 63.8154 19.975C62.4626 18.4221 61.7867 16.3908 61.9404 14.335C61.8054 12.204 62.4898 10.1012 63.8529 8.46C65.2732 6.98984 67.2617 6.21058 69.2998 6.3262C70.8073 6.23596 72.2961 6.6975 73.4904 7.6234C74.5011 8.4882 75.0579 9.7713 74.9998 11.1014C75.0682 12.4033 74.4486 13.646 73.3686 14.3726C71.9145 15.2054 70.2486 15.5908 68.5779 15.4818C67.6311 15.4931 66.6861 15.3859 65.7654 15.1622C65.7711 16.2018 66.1892 17.1964 66.9279 17.9258C67.8026 18.5481 68.8676 18.8442 69.9373 18.7624C70.4604 18.7624 70.9836 18.7276 71.5029 18.659C72.2173 18.5481 72.9242 18.3967 73.6217 18.2078H73.7904H73.9311C74.2564 18.2078 74.4186 18.4306 74.4186 18.8752V20.2006C74.4364 20.4253 74.3914 20.6499 74.2873 20.8492C74.1542 21.0062 73.9779 21.1199 73.7811 21.1782C72.3467 21.7074 70.8279 21.9659 69.2998 21.9396ZM68.3623 12.8874C69.1001 12.941 69.8379 12.7849 70.4904 12.4362C70.9386 12.1288 71.1917 11.6071 71.1561 11.0638C71.1561 9.85402 70.437 9.2496 68.9998 9.2496C67.1557 9.2496 66.0908 10.3842 65.8029 12.6524C66.6401 12.8131 67.4914 12.8921 68.3436 12.8874H68.3623Z" fill="#3B130D"/>
<path d="M67.7908 37.7033C59.5783 43.7757 47.672 46.9999 37.4252 46.9999C23.732 47.0732 10.5039 42.0226 0.328301 32.8341C-0.440449 32.1385 0.243926 31.1891 1.17205 31.7249C12.4764 38.1968 25.2705 41.5958 38.2877 41.5855C48.0011 41.5338 57.6096 39.5626 66.5627 35.7857C67.9877 35.1935 69.1502 36.6599 67.7908 37.7033Z" fill="#3B130D"/>
<path d="M71.2499 33.84C70.1999 32.4958 64.3124 33.2008 61.6593 33.5204C60.853 33.6144 60.7218 32.9188 61.453 32.4112C66.1405 29.1024 73.8561 30.0612 74.7468 31.1704C75.6374 32.2796 74.5124 40.0158 70.0593 43.71C69.3843 44.274 68.7374 43.9732 69.0374 43.2212C70.0405 40.6926 72.2624 35.1466 71.2499 33.84Z" fill="#3B130D"/>
</g>
<defs>
<clipPath id="clip0">
<rect width="75" height="47" fill="white"/>
</clipPath>
</defs>
</svg>
