<?xml version="1.0" encoding="utf-8"?>
<!-- Generator: Adobe Illustrator 22.0.1, SVG Export Plug-In . SVG Version: 6.00 Build 0)  -->
<svg version="1.1" id="Layer_1" xmlns="http://www.w3.org/2000/svg" xmlns:xlink="http://www.w3.org/1999/xlink" x="0px" y="0px"
	 viewBox="0 0 102.1 47" style="enable-background:new 0 0 102.1 47;" xml:space="preserve">
<style type="text/css">
	.st0{fill:#163F31;}
	.st1{fill:#506F64;}
</style>
<path class="st0" d="M40.5,37.7c0,0.6-0.5,1.2-1.1,1.2h-2.6v-2.3h2.6C40,36.5,40.5,37,40.5,37.7z M39.3,34.3h-3.6
	c-0.6,0-1,0.5-1,1.1v9.2c0,0.6,0.5,1.1,1,1.1s1-0.5,1-1.1V41h2.6c1.8,0,3.2-1.5,3.2-3.3S41.1,34.3,39.3,34.3z"/>
<path class="st0" d="M50.7,34.3c-0.5,0-1,0.4-1,1.1v6.5c0,1.1-0.8,1.9-1.9,1.9c-1,0-1.9-0.9-1.9-1.9v-6.5c0-0.7-0.5-1.1-1-1.1
	c-0.5,0-1.1,0.4-1.1,1.1v6.5c0,2.2,1.8,4.1,3.9,4.1c2.2,0,3.9-1.8,3.9-4.1v-6.5C51.8,34.7,51.2,34.3,50.7,34.3z"/>
<path class="st0" d="M59.8,37.6c0,0.6-0.5,1.2-1.2,1.2h-2.6v-2.3h2.6C59.3,36.5,59.8,37,59.8,37.6z M61.9,37.6
	c0-1.8-1.4-3.3-3.2-3.3h-3.6c-0.6,0-1,0.5-1,1.1v9.2c0,1.4,2.1,1.4,2.1,0V41H57l3,4.3c0.2,0.3,0.5,0.4,0.8,0.4
	c0.6,0,1.1-0.5,1.1-1.1c0-0.2-0.1-0.4-0.2-0.6l-2.2-3.1C60.9,40.5,61.9,39.2,61.9,37.6z"/>
<path class="st0" d="M70.6,36.5c0.6,0,1-0.5,1-1.1c0-0.6-0.5-1.1-1-1.1h-5.8c-0.6,0-1,0.5-1,1.1v9.2c0,0.6,0.5,1.1,1,1.1h5.8
	c0.6,0,1-0.5,1-1.1s-0.5-1.1-1-1.1h-4.8v-2.9h3.1c0.6,0,1-0.5,1-1.1c0-0.6-0.5-1.1-1-1.1h-3.1v-2.1L70.6,36.5L70.6,36.5z"/>
<path class="st0" d="M81.2,39.4h-1.9c-0.7,0-1,0.6-1,1.1c0,0.5,0.4,1.1,1.1,1.1H80c-0.3,1.5-1.1,2.3-2.3,2.3c-1.7,0-2.5-1.2-2.5-3.8
	c0-2.6,0.8-3.8,2.5-3.8c0.8,0,1.4,0.3,1.8,0.9c0.2,0.3,0.5,0.5,0.8,0.5c0.6,0,1.1-0.5,1.1-1.1c0-0.2-0.1-0.4-0.2-0.6
	c-0.8-1.2-1.9-1.8-3.5-1.8c-2.8,0-4.5,2.2-4.5,6c0,3.8,1.7,6,4.6,6c3.3,0,4.5-2.8,4.5-5.5v-0.1C82.2,39.8,81.8,39.4,81.2,39.4z"/>
<path class="st0" d="M89.6,34.3c-0.4,0-0.7,0.2-0.9,0.6l-1.9,3.7l-1.9-3.7c-0.2-0.4-0.5-0.6-0.9-0.6c-0.5,0-1.1,0.4-1.1,1
	c0,0.2,0,0.4,0.1,0.6l2.7,5.2v3.6c0,0.7,0.5,1.1,1,1.1c0.5,0,1-0.4,1-1.1v-3.5l2.7-5.2c0.1-0.2,0.2-0.4,0.2-0.5
	C90.7,34.8,90.1,34.3,89.6,34.3z"/>
<path class="st0" d="M101,34.3c-0.4,0-0.7,0.2-0.9,0.7l-3,5.7L94.2,35c-0.3-0.5-0.5-0.7-0.9-0.7c-0.7,0-1.1,0.4-1.1,1.2v9.1
	c0,1.4,2.1,1.4,2.1,0v-5l1.9,3.6c0.2,0.5,0.5,0.7,1,0.7c0.4,0,0.7-0.2,1-0.7l1.9-3.6v5c0,0.7,0.5,1.1,1,1.1c0.5,0,1-0.4,1-1.1v-9.2
	C102.1,34.7,101.7,34.3,101,34.3z"/>
<path class="st0" d="M18.9,2.6h-5.3c-3.3,0-6.3,1.2-8.3,3.2c-1.9,2-2.8,4.7-2.8,8.2v20.3c0,8.8,2.4,10,5.1,10c3,0,4.1-2.5,5-5.3
	l0.1-0.2c2-6.2,5.5-9.8,11.8-11.9c3.5-1.2,5.4-3.1,5.5-10.1v-2.9c0-3.3-1-6.2-2.9-8.2C25,3.7,22.2,2.6,18.9,2.6z M7.6,47
	C0,47,0,38.1,0,34.3V14C-0.1,9.9,1.1,6.5,3.5,4c2.4-2.6,6.1-4,10.1-4h5.3c4.1,0,7.5,1.3,9.9,3.8c2.4,2.5,3.7,6,3.7,10v3
	c-0.1,7.4-2.2,10.9-7.2,12.6c-5.6,1.9-8.4,4.7-10.2,10.2L15,39.8C14.3,42.2,12.7,47,7.6,47z"/>
<path class="st1" d="M24.9,45.7c3.1,0,5.7-2.5,5.7-5.7s-2.5-5.7-5.7-5.7s-5.7,2.5-5.7,5.7S21.8,45.7,24.9,45.7z"/>
</svg>
