<svg width="90" height="40" viewBox="0 0 90 40" fill="none" xmlns="http://www.w3.org/2000/svg">
<g clip-path="url(#clip0)">
<path d="M23.4726 0.241455C20.1155 0.241455 17.3973 2.95185 17.3973 6.29941C17.3973 6.37786 17.3978 6.45326 17.4065 6.53214C16.7453 6.43238 16.0775 6.38227 15.4087 6.38222C13.4288 6.38222 11.5565 6.81717 9.8736 7.59207C8.89686 7.06861 7.80486 6.79529 6.69582 6.79669C2.99672 6.79669 0 9.78906 0 13.4722C0 15.4282 0.846272 17.1789 2.18762 18.3996C2.15148 18.8031 2.13353 19.2079 2.13383 19.613C2.13383 26.9196 8.07391 32.8389 15.4091 32.8389C18.2615 32.8389 20.8979 31.942 23.0579 30.4205C25.002 33.0765 28.1435 34.8071 31.6982 34.8071C31.7883 34.8071 31.8688 34.8001 31.9501 34.7962C32.9757 37.6849 35.7302 39.7585 38.9792 39.7585C42.2646 39.7585 45.0536 37.6334 46.0464 34.6855C47.1703 36.8154 49.4096 38.2689 51.9943 38.2689C55.2263 38.2689 57.9248 35.993 58.5721 32.9658C59.04 33.0289 59.508 33.0765 59.9934 33.0765C62.6219 33.0765 65.0186 32.0806 66.8336 30.4572C68.9762 31.9077 71.5077 32.6813 74.098 32.6772C81.2355 32.6772 87.0304 26.9034 87.0304 19.7864C87.0304 18.9052 86.9429 18.0479 86.7724 17.2142C88.653 16.5186 90 14.7169 90 12.5945C90 9.87186 87.787 7.66267 85.0492 7.66267C83.6366 7.66267 82.3682 8.25539 81.4673 9.19982C79.3056 7.69795 76.7332 6.89364 74.098 6.89562C71.3252 6.89562 68.7623 7.76945 66.663 9.24733C65.7096 8.37437 64.45 7.83613 63.0549 7.83613C62.0184 7.83613 61.0562 8.13685 60.2471 8.64676C58.3009 5.21247 54.6228 2.88516 50.3849 2.88516C46.5143 2.88516 43.1017 4.8211 41.0584 7.76901C40.1848 6.87049 39.1384 6.15656 37.9819 5.66985C36.8253 5.18313 35.5822 4.9336 34.3267 4.93615C32.6475 4.93521 30.9994 5.387 29.557 6.24363C29.5207 2.92439 26.8113 0.241455 23.4726 0.241455Z" fill="white"/>
<path d="M23.6253 4.30396C22.2035 4.30396 21.268 5.10979 21.268 6.65479V21.3403C20.5027 19.1032 17.8746 18.2137 15.6157 17.6959L13.6442 17.2457C12.186 16.9258 11.1241 16.6691 11.1241 15.5704C11.1241 14.5746 12.1869 14.1244 13.8335 14.1244C16.8128 14.1244 16.8757 16.2813 18.7205 16.2813C19.9446 16.2813 20.6912 15.3133 20.6912 14.2189C20.6912 12.0651 17.0647 10.6461 13.4828 10.6461C10.2158 10.6461 6.4082 12.0647 6.4082 15.8938C6.4082 19.0513 8.54159 20.1784 11.2864 20.8539L14.0679 21.5299C15.7417 21.9487 16.7765 22.1426 16.7765 23.332C16.7765 24.296 15.715 25.0387 14.0321 25.0387C10.5398 25.0387 10.35 22.1418 8.30718 22.1418C6.98419 22.1418 6.4082 23.0753 6.4082 24.1065C6.4082 26.4224 9.96386 28.3226 14.2206 28.3226C17.2628 28.3226 20.4218 27.0182 21.268 24.2403V25.9713C21.268 27.5168 22.2035 28.3226 23.6253 28.3226C25.0476 28.3226 25.984 27.5168 25.984 25.9713V22.3989L27.6306 20.9485L32.0946 27.2278C32.4458 27.7417 33.0577 28.3226 34.2276 28.3226C35.4876 28.3226 36.4502 27.2278 36.4502 26.0345C36.4528 25.4915 36.2827 24.9616 35.9643 24.5209L31.0594 17.9531L34.5429 14.3174C34.6868 14.1597 34.8123 14.0333 34.9203 13.8912C35.0196 14.2072 35.1543 14.5863 35.3253 15.0923L40.2394 29.03C39.8794 30.4804 39.2046 30.5118 38.5928 30.5118H38.1064C36.8464 30.5118 35.9376 31.1559 35.9376 32.4128C35.9376 33.539 36.811 34.5662 38.9081 34.5662C41.8869 34.5662 43.174 32.8953 44.3102 29.6745L49.6109 14.7005V32.2193C49.6109 33.7647 50.5468 34.5662 51.9682 34.5662C53.3896 34.5662 54.3255 33.7647 54.3255 32.2193V25.94H54.3868C55.2615 27.4536 56.8797 28.3226 59.0402 28.3226C63.0813 28.3226 65.3599 25.5364 66.0684 22.0747C66.86 25.3782 69.5147 28.3226 74.881 28.3226C77.715 28.3226 82.2809 27.0029 82.2809 24.1697C82.2809 23.3002 81.4675 22.3318 80.3347 22.3318C78.4366 22.3318 78.4366 24.6512 74.881 24.6512C72.1257 24.6512 70.5162 22.8495 70.5162 20.368H81.1832C82.7664 20.368 83.2518 19.9526 83.2518 18.3405C83.2518 14.4756 80.1467 10.6461 74.7192 10.6461C70.0832 10.6461 67.0131 13.1717 66.099 17.1468C65.2855 12.7445 62.2809 10.6461 58.9133 10.6461C56.6216 10.6461 54.7104 11.6145 53.9363 13.6057H53.8751V12.867C53.8751 11.4205 53.1272 10.6461 51.7408 10.6461C50.7262 10.6461 50.0964 11.0335 49.799 11.7605C49.4666 11.1952 48.8149 10.6461 47.6997 10.6461C46.4051 10.6461 45.7666 11.5478 45.443 12.7411L42.5621 23.3948H42.4987L39.457 12.4168C39.1692 11.3538 38.2954 10.6461 37.0354 10.6461C36.1537 10.6461 35.3892 11.1246 35.0109 11.8559C34.6151 11.1368 33.7959 10.6461 33.031 10.6461C32.3199 10.6461 31.708 11.0339 31.2217 11.5478L25.984 17.3447V6.65479C25.984 5.10979 25.0476 4.30396 23.6253 4.30396ZM81.9372 10.9825V11.5282H82.8294V13.9422H83.4854V11.5282H84.3776V10.9825H81.9372ZM84.7187 10.9825V13.9422H85.331V11.8633L86.0701 13.9422H86.5643L87.2947 11.8437H87.3035V13.9422H87.9157V10.9825H86.9973L86.3413 13.0178H86.3325L85.6372 10.9825H84.7187ZM74.8128 13.9304C76.9164 13.9304 78.5258 15.5068 78.7883 17.6646H70.518C71.0297 15.3804 72.4511 13.9304 74.8128 13.9304ZM57.8436 14.3174C60.3671 14.3492 61.6004 16.6687 61.6004 19.4349C61.6004 21.6244 60.8526 24.6199 57.8436 24.6512C54.9746 24.6512 54.0649 21.8498 54.0649 19.4349C54.0649 16.7637 55.1014 14.2821 57.8436 14.3174Z" fill="#163F3B"/>
</g>
<defs>
<clipPath id="clip0">
<rect width="90" height="40" fill="white"/>
</clipPath>
</defs>
</svg>
