<svg width="55" height="52" viewBox="0 0 55 52" fill="none" xmlns="http://www.w3.org/2000/svg">
<path fill-rule="evenodd" clip-rule="evenodd" d="M18.5668 17.6516C18.5668 19.276 17.26 20.5869 15.6408 20.5869C14.0216 20.5869 12.7148 19.2716 12.7148 17.6516C12.7148 16.0317 14.0216 14.7163 15.6408 14.7163H18.5668V17.6516ZM20.0276 17.6516C20.0276 16.0273 21.3344 14.7163 22.9536 14.7163C24.5728 14.7163 25.8796 16.0273 25.8796 17.6516V24.9877C25.8796 26.6121 24.5728 27.923 22.9536 27.923C21.3344 27.923 20.0276 26.6121 20.0276 24.9877V17.6516Z" fill="#163F3B"/>
<path fill-rule="evenodd" clip-rule="evenodd" d="M22.9532 5.87064C21.334 5.87064 20.0272 4.55968 20.0272 2.93532C20.0272 1.31096 21.334 0 22.9532 0C24.5724 0 25.8792 1.31096 25.8792 2.93532V5.87064H22.9532ZM22.9532 7.35817C24.5724 7.35817 25.8792 8.66913 25.8792 10.2935C25.8792 11.9178 24.5724 13.2288 22.9532 13.2288H15.6184C13.9992 13.2288 12.6924 11.9134 12.6924 10.2935C12.6924 8.67354 13.9992 7.35817 15.6184 7.35817H22.9532Z" fill="#163F3B"/>
<path fill-rule="evenodd" clip-rule="evenodd" d="M34.6742 10.2935C34.6742 8.66913 35.981 7.35817 37.6002 7.35817C39.2194 7.35817 40.5262 8.66913 40.5262 10.2935C40.5262 11.9178 39.2194 13.2288 37.6002 13.2288H34.6742V10.2935ZM33.2134 10.2935C33.2134 11.9178 31.9065 13.2288 30.2873 13.2288C28.6681 13.2288 27.3613 11.9178 27.3613 10.2935V2.93532C27.3613 1.31096 28.6681 0 30.2873 0C31.9065 0 33.2134 1.31096 33.2134 2.93532V10.2935Z" fill="#163F3B"/>
<path fill-rule="evenodd" clip-rule="evenodd" d="M30.2873 22.0524C31.9065 22.0524 33.2134 23.3634 33.2134 24.9877C33.2134 26.6121 31.9065 27.923 30.2873 27.923C28.6681 27.923 27.3613 26.6121 27.3613 24.9877V22.0524H30.2873ZM30.2873 20.5869C28.6681 20.5869 27.3613 19.276 27.3613 17.6516C27.3613 16.0273 28.6681 14.7163 30.2873 14.7163H37.6222C39.2414 14.7163 40.5482 16.0273 40.5482 17.6516C40.5482 19.276 39.2414 20.5869 37.6222 20.5869H30.2873Z" fill="#163F3B"/>
<path fill-rule="evenodd" clip-rule="evenodd" d="M0 50.0862L1.00929 47.6759C2.09946 48.5137 3.55194 48.9492 4.985 48.9492C6.04282 48.9492 6.71245 48.5303 6.71245 47.8954C6.69627 46.1201 0.375251 47.5097 0.326727 43.0583C0.310553 40.7976 2.26444 39.0556 5.03353 39.0556C6.6801 39.0556 8.32343 39.4745 9.49771 40.4286L8.55311 42.8887C7.47912 42.1839 6.1431 41.6819 4.87178 41.6819C4.00806 41.6819 3.43871 42.1008 3.43871 42.6361C3.45489 44.3781 9.82443 43.424 9.88913 47.6759C9.88913 49.9864 7.98377 51.6121 5.24703 51.6121C3.24138 51.6088 1.40072 51.1234 0 50.0862ZM38.7575 46.8049C38.2529 47.7092 37.3083 48.3275 36.2149 48.3275C34.6006 48.3275 33.3002 46.9878 33.3002 45.3322C33.3002 43.6766 34.6039 42.3369 36.2149 42.3369C37.305 42.3369 38.2529 42.9552 38.7575 43.8595L41.5428 42.2704C40.5011 40.3621 38.4955 39.0556 36.2149 39.0556C32.8408 39.0556 30.1041 41.8681 30.1041 45.3355C30.1041 48.8029 32.8408 51.6154 36.2149 51.6154C38.5116 51.6154 40.5011 50.3255 41.5428 48.4007L38.7575 46.8049ZM11.2899 33.8462H14.7771V51.3761H11.2899V33.8462ZM42.9111 33.8462V51.3761H46.3984V46.1168L50.5358 51.3761H55L49.7368 45.1294L54.6086 39.3016H50.3385L46.3951 44.1387V33.8462H42.9111Z" fill="#163F3B"/>
<path d="M25.2091 46.7911C24.6939 47.6545 23.6304 48.2962 22.4316 48.2962C20.7835 48.2962 19.4558 46.9423 19.4558 45.2692C19.4558 43.5962 20.7868 42.2423 22.4316 42.2423C23.6304 42.2423 24.6939 42.9176 25.2091 43.7978V46.7911ZM25.2091 39.1784V40.6163C24.6279 39.6185 23.1813 38.9231 21.6653 38.9231C18.5377 38.9231 16.0771 41.7317 16.0771 45.2525C16.0771 48.7732 18.5377 51.6154 21.6653 51.6154C23.178 51.6154 24.6246 50.9233 25.2091 49.9222V51.3601H28.7695V39.1784H25.2091Z" fill="#163F3B"/>
</svg>
