<svg width="87" height="29" viewBox="0 0 87 29" fill="none" xmlns="http://www.w3.org/2000/svg">
<g clip-path="url(#clip0)">
<path d="M59.7978 26.5061L59.5078 28.3041H57.6519L57.9419 26.5061H59.7978Z" fill="#163F31" stroke="#163F31" stroke-width="0.5808"/>
<path d="M4.52393 28.1881L6.26393 17.6321H9.80193C10.6719 17.6321 11.3679 17.6901 11.8899 17.8061C12.4119 17.9221 12.9339 18.2121 13.3979 18.6181C13.9199 19.0241 14.2679 19.5461 14.4999 20.1841C14.7319 20.8221 14.9059 21.5181 14.9059 22.3301C14.9059 23.3741 14.7319 24.3021 14.3259 25.1141C13.9199 25.9841 13.3979 26.6801 12.7599 27.1441C12.1219 27.6081 11.4839 27.9561 10.9039 28.0141C10.3239 28.1301 9.45393 28.1881 8.35193 28.1881H4.52393ZM8.06193 25.8101H8.75793C9.51193 25.8101 10.0339 25.6941 10.3819 25.5201C10.7299 25.2881 11.0199 24.9401 11.3099 24.3601C11.5419 23.7801 11.7159 23.0841 11.7159 22.2721C11.7159 20.7061 11.1359 19.9521 9.97593 19.9521H9.04793L8.06193 25.8101Z" fill="#163F31" stroke="#163F31" stroke-width="1.1616"/>
<path d="M20.1261 17.6321L18.3861 28.1881H15.3701L17.1101 17.6321H20.1261Z" fill="#163F31" stroke="#163F31" stroke-width="1.1616"/>
<path d="M28.0722 23.7801L29.1742 28.1881H26.1002L25.1722 24.1861H23.8962L23.2582 28.1881H20.2422L21.9822 17.6321H26.6222C27.8982 17.6321 28.8262 17.9221 29.4062 18.4441C29.9862 18.9661 30.3342 19.7201 30.3342 20.7061C30.2762 22.2141 29.5802 23.2581 28.0722 23.7801ZM24.3022 21.9821H25.4622C26.6222 21.9821 27.1442 21.5761 27.1442 20.8221C27.1442 20.1841 26.6802 19.8361 25.6942 19.8361H24.5922L24.3022 21.9821Z" fill="#163F31" stroke="#163F31" stroke-width="1.1616"/>
<path d="M38.9758 25.7521L38.5699 28.1881H30.7979L32.5379 17.6321H40.1358L39.7299 19.8941H35.2059L34.9159 21.5761H38.7439L38.3379 23.8381H34.5099L34.2199 25.7521H38.9758Z" fill="#163F31" stroke="#163F31" stroke-width="1.1616"/>
<path d="M46.4581 24.128L49.3001 24.476C48.9521 25.636 48.4301 26.564 47.6181 27.318C46.8061 28.072 45.8201 28.42 44.6021 28.42C43.2681 28.42 42.2241 27.956 41.4701 27.086C40.7161 26.158 40.3101 24.998 40.3101 23.606C40.3101 21.982 40.7741 20.532 41.7601 19.256C42.7461 17.98 44.0221 17.342 45.7621 17.342C46.9801 17.342 47.9661 17.69 48.7201 18.444C49.4741 19.198 49.8801 20.184 49.8801 21.46L46.9221 21.692C46.9221 21.054 46.8061 20.59 46.6321 20.242C46.4581 19.952 46.1101 19.778 45.6461 19.778C44.8921 19.778 44.3121 20.358 44.0221 21.518C43.7321 22.678 43.6161 23.606 43.6161 24.244C43.6161 25.346 44.0221 25.868 44.8921 25.868C45.2981 25.868 45.6461 25.752 45.8781 25.462C46.0521 25.172 46.2841 24.766 46.4581 24.128Z" fill="#163F31" stroke="#163F31" stroke-width="1.1616"/>
<path d="M55.854 20.0681L54.462 28.1881H51.388L52.78 20.0681H50.46L50.866 17.6321H58.58L58.174 20.0681H55.854Z" fill="#163F31" stroke="#163F31" stroke-width="1.1616"/>
<path d="M64.7861 25.578L66.5841 25.81C66.3521 26.564 66.0041 27.144 65.4821 27.608C64.9601 28.072 64.3221 28.304 63.5101 28.304C62.6401 28.304 62.0021 28.014 61.4801 27.434C60.9581 26.854 60.7261 26.1 60.7261 25.23C60.7261 24.186 61.0161 23.258 61.6541 22.446C62.2921 21.634 63.1041 21.228 64.2061 21.228C65.0181 21.228 65.6561 21.46 66.1201 21.924C66.5841 22.388 66.8741 23.026 66.8741 23.838L64.9601 23.954C64.9601 23.548 64.9021 23.258 64.7861 23.026C64.6701 22.794 64.4381 22.736 64.1481 22.736C63.6261 22.736 63.2781 23.084 63.1041 23.838C62.9301 24.592 62.8141 25.172 62.8141 25.578C62.8141 26.274 63.1041 26.622 63.6261 26.622C63.9161 26.622 64.0901 26.506 64.2641 26.332C64.5541 26.274 64.6701 25.984 64.7861 25.578Z" fill="#163F31" stroke="#163F31" stroke-width="0.5808"/>
<path d="M70.1221 28.362C69.3101 28.362 68.6141 28.072 68.0341 27.55C67.4541 27.028 67.1641 26.274 67.1641 25.288C67.1641 24.186 67.5121 23.2 68.1501 22.388C68.7881 21.576 69.6581 21.228 70.7021 21.228C71.5721 21.228 72.2681 21.518 72.7901 22.04C73.3121 22.62 73.6021 23.316 73.6021 24.186C73.6021 25.346 73.2541 26.274 72.6161 27.086C72.0361 27.956 71.1661 28.362 70.1221 28.362ZM70.1801 26.796C70.5281 26.796 70.8181 26.622 70.9921 26.332C71.1661 26.042 71.3401 25.578 71.3981 25.056C71.5141 24.476 71.5721 24.07 71.5721 23.896C71.5721 23.548 71.5141 23.258 71.3401 23.084C71.1661 22.91 70.9921 22.794 70.7021 22.794C70.1801 22.794 69.8321 23.142 69.6581 23.838C69.4261 24.534 69.3681 25.172 69.3681 25.694C69.3101 26.448 69.6001 26.796 70.1801 26.796Z" fill="#163F31" stroke="#163F31" stroke-width="0.5808"/>
<path d="M82.4761 21.46L81.3161 28.246H79.4601L80.0401 24.65C80.0981 24.302 80.1561 23.896 80.2721 23.49C80.3301 23.142 80.3881 22.91 80.4461 22.736C80.3881 22.852 80.3301 22.968 80.2721 23.2C80.0981 23.606 79.9821 24.012 79.8081 24.302L78.0681 28.246H76.8501L76.3861 24.302C76.3281 23.954 76.3281 23.606 76.2701 23.2C76.2701 22.968 76.2701 22.794 76.2121 22.678C76.0961 23.606 76.0381 24.418 75.9221 25.114L75.4001 28.304H73.8921L74.9941 21.518H77.7201L78.0681 24.534C78.0681 24.766 78.1261 24.94 78.1261 25.056C78.1841 24.882 78.2421 24.708 78.3001 24.534L79.6341 21.518H82.4761V21.46Z" fill="#163F31" stroke="#163F31" stroke-width="0.5808"/>
<path d="M17.922 4.17615L14.326 5.10415C14.21 4.69815 13.978 4.35015 13.572 4.11815C13.166 3.88615 12.702 3.77015 12.238 3.77015C11.31 3.77015 10.846 4.06015 10.846 4.69815C10.846 4.87215 10.904 5.04615 11.02 5.22015C11.136 5.33615 11.542 5.56815 12.122 5.74215L14.326 6.55415C14.906 6.78615 15.428 7.07615 15.95 7.48215C16.472 7.88815 16.82 8.29415 17.052 8.81615C17.284 9.28015 17.4 9.80215 17.4 10.3242C17.4 11.7162 16.82 12.9342 15.718 13.8622C14.616 14.7902 13.108 15.2542 11.252 15.2542C9.68603 15.2542 8.29403 14.9062 7.07603 14.2682C5.91603 13.6302 5.04603 12.6442 4.58203 11.3102L8.64203 10.4982C8.99003 11.4842 9.86003 12.0062 11.252 12.0062C11.832 12.0062 12.238 11.8902 12.528 11.7162C12.76 11.4842 12.934 11.2522 12.934 11.0202C12.934 10.8462 12.876 10.6722 12.76 10.5562C12.644 10.4402 12.528 10.3242 12.412 10.2662C12.296 10.2082 11.774 9.97615 10.788 9.62815C9.51203 9.16415 8.58403 8.75815 8.06203 8.46815C7.54003 8.17815 7.13403 7.77215 6.78603 7.25015C6.43803 6.72815 6.26403 6.03215 6.26403 5.33615C6.26403 4.06015 6.72803 2.95815 7.65603 2.08815C8.58403 1.21815 10.034 0.75415 12.006 0.75415C13.514 0.75415 14.732 1.04415 15.834 1.68215C16.878 2.26215 17.574 3.13215 17.922 4.17615Z" fill="#163F31" stroke="#163F31" stroke-width="1.5437"/>
<path d="M23.0838 9.86008L22.2138 15.0221H18.1538L20.4738 0.986084H25.1138C26.2158 0.986084 26.9698 1.04408 27.4918 1.10208C27.9558 1.16008 28.4778 1.39208 28.9998 1.74008C29.5218 2.08808 29.9278 2.55208 30.2758 3.19008C30.5658 3.77008 30.7398 4.40808 30.7398 5.10408C30.7398 6.43808 30.3338 7.54008 29.4638 8.46808C28.5938 9.39608 27.3758 9.86008 25.8098 9.86008H23.0838ZM23.5478 6.84408H24.5338C25.9838 6.84408 26.7378 6.32208 26.7378 5.33608C26.7378 4.46608 26.0998 4.00208 24.8818 4.00208H24.0118L23.5478 6.84408Z" fill="#163F31" stroke="#163F31" stroke-width="1.5437"/>
<path d="M37.4102 15.3121C35.7282 15.3121 34.3362 14.7901 33.1182 13.6881C31.9002 12.5861 31.2622 11.0201 31.2622 8.99008C31.2622 6.61208 31.9582 4.64008 33.2922 3.01608C34.6842 1.39208 36.4242 0.580078 38.6282 0.580078C40.3682 0.580078 41.8182 1.16008 42.9782 2.32008C44.1382 3.48008 44.6602 4.98808 44.6602 6.84408C44.6602 9.22208 43.9642 11.2521 42.6302 12.8761C41.3542 14.5001 39.5562 15.3121 37.4102 15.3121ZM37.4102 12.0641C38.1062 12.0641 38.6862 11.7741 39.0342 11.1361C39.3822 10.4981 39.7302 9.62808 39.9042 8.41008C40.1362 7.25008 40.2522 6.43808 40.2522 5.97408C40.2522 5.27808 40.0782 4.69808 39.7302 4.35008C39.3822 4.00208 38.9762 3.77008 38.3962 3.77008C37.3522 3.77008 36.5982 4.52408 36.1922 5.97408C35.7862 7.42408 35.5542 8.70008 35.5542 9.86008C35.6702 11.3681 36.2502 12.0641 37.4102 12.0641Z" fill="#163F31" stroke="#163F31" stroke-width="1.5437"/>
<path d="M55.6802 9.10608L57.1882 15.0221H53.0122L51.7942 9.68608H50.1122L49.2422 15.0221H45.2402L47.5602 0.986084H53.7082C55.3902 0.986084 56.6082 1.33408 57.4202 2.08808C58.2322 2.84208 58.6382 3.82808 58.6382 5.04608C58.6382 7.01808 57.6522 8.35208 55.6802 9.10608ZM50.6342 6.72808H52.2002C53.7082 6.72808 54.4622 6.20608 54.4622 5.16208C54.4622 4.29208 53.8242 3.88608 52.5482 3.88608H51.0982L50.6342 6.72808Z" fill="#163F31" stroke="#163F31" stroke-width="1.5437"/>
<path d="M66.932 4.17598L65.134 14.964H61.074L62.872 4.17598H59.856L60.378 0.927979H70.586L70.064 4.17598H66.932Z" fill="#163F31" stroke="#163F31" stroke-width="1.5437"/>
<path d="M82.4762 4.17615L78.8802 5.10415C78.7642 4.69815 78.5322 4.35015 78.1262 4.11815C77.7202 3.88615 77.2562 3.77015 76.7922 3.77015C75.8642 3.77015 75.4002 4.06015 75.4002 4.69815C75.4002 4.87215 75.4582 5.04615 75.5742 5.22015C75.6902 5.33615 76.0962 5.56815 76.6762 5.74215L78.8802 6.55415C79.4602 6.78615 79.9822 7.07615 80.5042 7.48215C81.0262 7.88815 81.3742 8.29415 81.6062 8.81615C81.8382 9.28015 81.9542 9.80215 81.9542 10.3242C81.9542 11.7162 81.3742 12.9342 80.2722 13.8622C79.1702 14.7902 77.6622 15.2542 75.8062 15.2542C74.2402 15.2542 72.8482 14.9062 71.6302 14.2682C70.4702 13.6302 69.6002 12.6442 69.1362 11.3102L73.1962 10.4982C73.5442 11.4842 74.4142 12.0062 75.8062 12.0062C76.3862 12.0062 76.7922 11.8902 77.0822 11.7162C77.3142 11.4842 77.4882 11.2522 77.4882 11.0202C77.4882 10.8462 77.4302 10.6722 77.3142 10.5562C77.1982 10.4402 77.0822 10.3242 77.0242 10.2662C76.9082 10.2082 76.3862 9.97615 75.4002 9.62815C74.1242 9.16415 73.1962 8.75815 72.6742 8.46815C72.1522 8.17815 71.7462 7.77215 71.3982 7.25015C71.0502 6.72815 70.8762 6.03215 70.8762 5.33615C70.8762 4.06015 71.3402 2.95815 72.2682 2.08815C73.1962 1.21815 74.6462 0.75415 76.6182 0.75415C78.1262 0.75415 79.3442 1.04415 80.4462 1.68215C81.4322 2.26215 82.1282 3.13215 82.4762 4.17615Z" fill="#163F31" stroke="#163F31" stroke-width="1.5437"/>
</g>
<defs>
<clipPath id="clip0">
<rect width="87" height="29" fill="white"/>
</clipPath>
</defs>
</svg>
