<svg width="110" height="33" viewBox="0 0 110 33" fill="none" xmlns="http://www.w3.org/2000/svg">
<g clip-path="url(#clip0)">
<path d="M16.4959 0C7.38565 0 0 7.38725 0 16.4997C0 25.6131 7.38565 33 16.4959 33C25.6065 33 32.9918 25.6131 32.9918 16.4997C32.9918 7.38783 25.6069 0.000787517 16.4957 0.000787517L16.4959 0ZM24.0608 23.7973C23.7645 24.2834 23.1314 24.4357 22.647 24.1395C18.7734 21.7714 13.8977 21.2365 8.15564 22.5485C7.60232 22.6754 7.05077 22.3284 6.92471 21.7752C6.79805 21.2217 7.14335 20.67 7.69805 20.5439C13.9818 19.107 19.3718 19.7255 23.7198 22.383C24.2044 22.6805 24.358 23.313 24.0606 23.7977L24.0608 23.7973ZM26.0798 19.3052C25.7068 19.9107 24.9153 20.1006 24.3108 19.7288C19.8777 17.0031 13.1178 16.2136 7.87318 17.806C7.19299 18.0115 6.4746 17.6281 6.26816 16.9489C6.0633 16.2686 6.44683 15.5514 7.12583 15.3445C13.1167 13.5263 20.5641 14.407 25.6561 17.5369C26.2609 17.9093 26.4519 18.7013 26.0796 19.3054L26.0798 19.3052ZM26.2532 14.6269C20.9358 11.4683 12.165 11.1779 7.08897 12.7189C6.27387 12.9662 5.41188 12.5059 5.16486 11.6906C4.91784 10.8749 5.3776 10.0133 6.1933 9.7654C12.0202 7.99607 21.7068 8.33791 27.8279 11.9725C28.561 12.4078 28.8015 13.3549 28.367 14.0873C27.9336 14.8206 26.9842 15.0624 26.2534 14.6269H26.2532ZM44.8798 15.2322C42.0317 14.5528 41.5246 14.076 41.5246 13.0741C41.5246 12.1276 42.4156 11.4906 43.7405 11.4906C45.0248 11.4906 46.2983 11.9743 47.6334 12.9701C47.6738 13.0003 47.7244 13.0123 47.7743 13.0044C47.8241 12.9969 47.8682 12.9695 47.8974 12.9283L49.2881 10.9675C49.3452 10.8867 49.3297 10.7754 49.2526 10.7137C47.6636 9.43833 45.8742 8.81828 43.7827 8.81828C40.7074 8.81828 38.5593 10.6642 38.5593 13.3054C38.5593 16.1378 40.4123 17.1406 43.6144 17.9148C46.3399 18.5427 46.7998 19.0688 46.7998 20.0092C46.7998 21.0513 45.8697 21.6991 44.3728 21.6991C42.7103 21.6991 41.3543 21.139 39.8373 19.825C39.7997 19.7925 39.7481 19.7777 39.7004 19.7805C39.6502 19.7846 39.6043 19.8078 39.5724 19.8463L38.013 21.7025C37.9476 21.7795 37.9559 21.8946 38.0316 21.9612C39.7965 23.5372 41.9673 24.3697 44.3098 24.3697C47.6236 24.3697 49.765 22.5586 49.765 19.7554C49.7709 17.3891 48.3546 16.0788 44.8858 15.2348L44.8798 15.2322ZM57.2621 12.4225C55.8257 12.4225 54.6476 12.9884 53.6761 14.1479V12.8428C53.6761 12.7398 53.5926 12.6558 53.4897 12.6558H50.9394C50.8364 12.6558 50.7531 12.7398 50.7531 12.8428V27.3446C50.7531 27.4477 50.8364 27.5316 50.9394 27.5316H53.4897C53.5926 27.5316 53.6761 27.4477 53.6761 27.3446V22.767C54.6478 23.8578 55.8261 24.3908 57.2621 24.3908C59.931 24.3908 62.6329 22.3357 62.6329 18.4073C62.6368 14.478 59.9342 12.4224 57.2651 12.4224L57.2621 12.4225ZM59.6673 18.4073C59.6673 20.4078 58.4354 21.8038 56.6714 21.8038C54.9275 21.8038 53.6121 20.3443 53.6121 18.4073C53.6121 16.4705 54.9275 15.0109 56.6714 15.0109C58.4068 15.0107 59.6675 16.4388 59.6675 18.4071L59.6673 18.4073ZM69.5578 12.4225C66.1206 12.4225 63.4279 15.0698 63.4279 18.4501C63.4279 21.7935 66.1021 24.413 69.5156 24.413C72.965 24.413 75.666 21.7746 75.666 18.4073C75.666 15.0517 72.9831 12.4229 69.5576 12.4229L69.5578 12.4225ZM69.5578 21.8237C67.7296 21.8237 66.3513 20.3544 66.3513 18.4064C66.3513 16.45 67.6819 15.0304 69.5156 15.0304C71.3556 15.0304 72.7432 16.4997 72.7432 18.4491C72.7432 20.405 71.4037 21.8237 69.5579 21.8237H69.5578ZM83.0057 12.6558H80.1993V9.7859C80.1993 9.68305 80.1162 9.59911 80.0132 9.59911H77.4632C77.36 9.59911 77.2763 9.68305 77.2763 9.7859V12.6558H76.0501C75.9475 12.6558 75.8643 12.7398 75.8643 12.8428V15.0352C75.8643 15.138 75.9475 15.2221 76.0501 15.2221H77.2763V20.8948C77.2763 23.1873 78.417 24.3496 80.6668 24.3496C81.5816 24.3496 82.3405 24.1606 83.0558 23.7549C83.1139 23.7224 83.1499 23.6598 83.1499 23.5932V21.5055C83.1499 21.441 83.1164 21.3801 83.0613 21.3465C83.0057 21.3116 82.9366 21.3098 82.8797 21.338C82.3884 21.5853 81.9135 21.6993 81.3826 21.6993C80.5643 21.6993 80.1993 21.3277 80.1993 20.4949V15.2232H83.0057C83.1087 15.2232 83.1917 15.1392 83.1917 15.0362V12.844C83.1956 12.741 83.1129 12.657 83.0085 12.657L83.0057 12.6558ZM92.784 12.6671V12.3146C92.784 11.2776 93.1814 10.8152 94.073 10.8152C94.6047 10.8152 95.0317 10.9208 95.51 11.0804C95.5689 11.0989 95.6303 11.0896 95.6782 11.0544C95.7274 11.0191 95.7552 10.9626 95.7552 10.9027V8.75305C95.7552 8.67089 95.7024 8.59819 95.6232 8.57395C95.118 8.42361 94.4715 8.26934 93.5035 8.26934C91.148 8.26934 89.9029 9.59614 89.9029 12.1049V12.6448H88.6777C88.5748 12.6448 88.4905 12.7287 88.4905 12.8316V15.0352C88.4905 15.138 88.5748 15.2221 88.6777 15.2221H89.9029V23.972C89.9029 24.0751 89.986 24.159 90.0888 24.159H92.6392C92.7422 24.159 92.8261 24.0751 92.8261 23.972V15.2227H95.2072L98.8547 23.9705C98.4407 24.8896 98.0335 25.0725 97.4777 25.0725C97.0283 25.0725 96.5552 24.9383 96.0714 24.6735C96.0259 24.6485 95.9719 24.6443 95.9229 24.6595C95.8742 24.6766 95.8332 24.7129 95.8126 24.7602L94.9482 26.657C94.907 26.7466 94.9423 26.8519 95.0286 26.8984C95.9309 27.3872 96.7455 27.5958 97.7523 27.5958C99.6354 27.5958 100.676 26.7185 101.594 24.358L106.018 12.9224C106.04 12.8649 106.034 12.7999 105.999 12.7488C105.963 12.6982 105.907 12.6677 105.845 12.6677H103.19C103.111 12.6677 103.039 12.7183 103.013 12.793L100.294 20.5634L97.3148 12.7878C97.2876 12.7155 97.2178 12.6676 97.1406 12.6676H92.7834L92.784 12.6671ZM87.1148 12.6558H84.5645C84.4614 12.6558 84.3775 12.7398 84.3775 12.8428V23.9721C84.3775 24.0751 84.4614 24.159 84.5645 24.159H87.1148C87.2176 24.159 87.3017 24.0751 87.3017 23.9721V12.8436C87.3018 12.819 87.297 12.7947 87.2876 12.7719C87.2782 12.7492 87.2644 12.7286 87.247 12.7112C87.2296 12.6938 87.209 12.68 87.1862 12.6707C87.1635 12.6613 87.1392 12.6565 87.1146 12.6566L87.1148 12.6558ZM85.8541 7.58842C84.8438 7.58842 84.0239 8.40648 84.0239 9.41706C84.0239 10.4282 84.844 11.2473 85.8541 11.2473C86.864 11.2473 87.6831 10.4282 87.6831 9.41706C87.6831 8.40668 86.8636 7.58842 85.8551 7.58842H85.8541ZM108.196 16.2341C107.186 16.2341 106.401 15.4233 106.401 14.4388C106.401 13.4542 107.197 12.6342 108.205 12.6342C109.215 12.6342 110 13.4447 110 14.4285C110 15.4131 109.204 16.2341 108.196 16.2341H108.196ZM108.206 12.8127C107.286 12.8127 106.591 13.5437 106.591 14.4388C106.591 15.3335 107.281 16.0546 108.196 16.0546C109.116 16.0546 109.812 15.3242 109.812 14.4285C109.812 13.5338 109.12 12.8127 108.206 12.8127H108.206ZM108.604 14.6131L109.111 15.324H108.683L108.226 14.6718H107.833V15.324H107.475V13.4396H108.315C108.753 13.4396 109.041 13.6636 109.041 14.0408C109.042 14.3497 108.863 14.5385 108.605 14.6131H108.604V14.6131ZM108.3 13.763H107.833V14.359H108.3C108.533 14.359 108.673 14.2449 108.673 14.0607C108.673 13.8668 108.533 13.763 108.3 13.763H108.3V13.763Z" fill="#3B130D"/>
</g>
<defs>
<clipPath id="clip0">
<rect width="110" height="33" fill="white"/>
</clipPath>
</defs>
</svg>
