<svg width="67" height="67" viewBox="0 0 67 67" fill="none" xmlns="http://www.w3.org/2000/svg">
<g clip-path="url(#clip0)">
<path d="M33.6005 66.5198C51.9232 66.5198 66.7766 51.6663 66.7766 33.3436C66.7766 15.021 51.9232 0.16748 33.6005 0.16748C15.2778 0.16748 0.424316 15.021 0.424316 33.3436C0.424316 51.6663 15.2778 66.5198 33.6005 66.5198Z" fill="#163F31"/>
<path d="M36.9505 14.4162C35.844 14.2247 34.7233 14.1276 33.6005 14.1259C32.4776 14.129 31.3571 14.2261 30.2505 14.4162C30.083 14.4162 30.0271 14.2822 30.15 14.1817L33.6116 11.5576L37.0621 14.1817C37.185 14.2822 37.118 14.4497 36.9505 14.4162ZM31.1773 30.9317C31.1266 30.9482 31.0802 30.9758 31.0416 31.0125C31.0029 31.0492 30.973 31.0941 30.954 31.1439C31.6575 31.6799 32.1376 32.9082 33.6005 32.9082C35.0633 32.9082 35.5435 31.6799 36.2358 31.1439C36.2167 31.0941 36.1868 31.0492 36.1482 31.0125C36.1095 30.9758 36.0632 30.9482 36.0125 30.9317C35.2179 31.0852 34.4096 31.1563 33.6005 31.1439C32.7876 31.1567 31.9756 31.0856 31.1773 30.9317V30.9317ZM33.6005 28.8659C33.1873 28.8659 33.098 28.7096 32.83 28.7096C32.4919 28.7343 32.1744 28.8811 31.9366 29.1227C31.9475 29.2175 31.9864 29.307 32.0483 29.3796C32.6401 29.4689 32.9081 29.8039 33.6005 29.8039C34.2928 29.8039 34.5496 29.4689 35.1415 29.3796C35.2034 29.307 35.2423 29.2175 35.2531 29.1227C35.0182 28.8836 34.7051 28.7369 34.371 28.7096C34.0918 28.7096 34.0025 28.8659 33.6005 28.8659V28.8659ZM66.8883 35.1751C66.8883 35.9679 66.7766 36.7607 66.6761 37.5424C62.9018 38.1677 61.5506 34.8066 57.687 34.9741C57.919 35.7969 58.1054 36.632 58.2453 37.4754C61.439 37.4754 62.712 40.4569 66.2741 40.0214C66.0843 40.9259 65.861 41.8304 65.6041 42.7126C62.8013 42.9917 61.8075 40.2001 58.5691 40.2782C58.5691 40.7472 58.5691 41.2051 58.5691 41.6741C58.5691 41.9421 58.5691 42.1989 58.5691 42.4557C61.3385 42.4557 62.2318 44.9794 64.8783 44.8677C64.5433 45.7611 64.1748 46.6321 63.7616 47.4919C61.8633 47.3914 61.2156 44.9571 58.3235 45.1581C58.2453 45.7722 58.1336 46.3976 57.9996 47.0006C60.501 46.8219 61.0481 49.1334 62.8348 49.3121C62.3807 50.1533 61.8893 50.9685 61.3608 51.7576C60.3 51.1881 59.4066 49.4684 57.3966 49.3567C57.6088 48.7202 57.7875 48.0726 57.9438 47.4137C55.8702 47.3872 53.8803 46.5913 52.3605 45.1804C52.9188 42.0202 48.0055 38.8042 48.0055 36.4816C48.0055 33.9691 49.2785 32.5732 49.2785 29.1786C49.1902 26.5069 48.0976 23.9669 46.2188 22.0654C45.8847 21.7164 45.5098 21.409 45.1021 21.1497C46.9392 23.212 48.0012 25.8493 48.106 28.6091C48.106 31.8027 46.6096 33.4889 46.6096 36.4257C46.6096 39.3626 50.92 41.9197 50.92 44.9571C50.92 46.1631 50.5403 47.3244 49.2785 49.6247C50.8864 51.3128 53.045 52.3703 55.3643 52.6062C55.5713 52.6371 55.7827 52.5978 55.9649 52.4946C56.147 52.3914 56.2893 52.2302 56.3693 52.0367C56.5256 51.6794 56.682 51.3109 56.8271 50.9201C58.5803 50.9871 59.3843 52.5727 60.3558 53.2092C59.8198 53.9537 59.2615 54.646 58.6808 55.2862C57.9811 54.2874 57.0078 53.5119 55.878 53.0529C55.6435 53.4996 55.409 53.9351 55.1521 54.3706C56.164 54.8137 57.0142 55.5586 57.5865 56.5034C56.9611 57.1622 56.3023 57.7876 55.6211 58.3794C55.1538 57.6073 54.5299 56.9417 53.7898 56.4252C53.5218 56.7937 53.2315 57.1622 52.9411 57.5419C53.5775 58.0406 54.1057 58.6637 54.4933 59.3732C53.7005 59.9986 52.8853 60.6016 52.0478 61.1599C51.6346 57.8099 47.0116 55.4537 48.2511 51.5231C47.7253 52.2945 47.4168 53.1932 47.3578 54.1249C47.3578 56.9724 50.384 59.2281 50.6296 62.0532C50.0043 62.4329 49.3566 62.7791 48.709 63.1141C48.5973 60.0097 45.359 56.6151 45.359 54.0579C45.359 51.2104 49.0775 48.3517 49.0775 44.9906C49.0775 41.6294 44.7783 39.3067 44.7783 36.3587C44.7783 33.4107 46.6096 31.7134 46.6096 27.9279C46.5912 26.5362 46.284 25.1635 45.7073 23.8967C45.1306 22.63 44.2971 21.4968 43.2596 20.5691C42.923 20.2579 42.5477 19.9915 42.143 19.7762C44.0899 21.8065 45.1745 24.512 45.1691 27.3249C45.1691 30.8759 43.081 32.8524 43.081 36.3364C43.081 39.8204 47.302 41.7522 47.302 44.9906C47.302 48.2289 43.3713 50.9759 43.3713 54.3147C43.3713 57.3409 46.833 60.3671 46.8776 63.9739C46.1332 64.3015 45.3627 64.603 44.5661 64.8784C45.0128 61.2381 41.1156 57.4861 41.1156 54.5269C41.1156 51.2774 45.1915 48.4969 45.1915 44.9906C45.1915 41.4842 41.0486 39.8762 41.0486 36.2806C41.0486 32.6849 43.5835 30.6972 43.5835 26.7442C43.5768 25.2765 43.2354 23.8297 42.5852 22.5138C41.9351 21.198 40.9932 20.0478 39.8315 19.1509L39.6863 19.0392C39.4853 18.8829 39.3066 19.0392 39.4518 19.2626C41.0926 21.1842 41.9567 23.6492 41.875 26.1747C41.875 29.8039 38.9605 32.7407 38.9605 36.2247C38.9605 40.3787 42.88 41.5624 42.88 44.9571C42.88 48.3517 38.6813 51.0764 38.6813 54.7167C38.6813 58.0667 42.6678 61.7852 42.0313 65.6601C41.2273 65.8611 40.4233 66.0397 39.597 66.1849C40.3451 61.3721 36.448 57.9104 36.448 54.7726C36.448 51.3556 40.7918 48.3182 40.7918 44.9794C40.7918 41.8416 37.6763 40.8142 37.2631 37.5982C37.254 37.4929 37.2229 37.3906 37.1719 37.2979C37.1209 37.2053 37.0512 37.1243 36.9671 37.0602C36.883 36.996 36.7864 36.9502 36.6835 36.9255C36.5807 36.9009 36.4738 36.898 36.3698 36.9171C35.4884 37.2121 34.5726 37.3923 33.6451 37.4531C32.6958 37.3755 31.7608 37.1727 30.8646 36.8501C30.7606 36.831 30.6537 36.8339 30.5509 36.8585C30.448 36.8832 30.3515 36.929 30.2674 36.9932C30.1833 37.0573 30.1135 37.1383 30.0625 37.2309C30.0115 37.3236 29.9804 37.4259 29.9713 37.5312C29.5693 40.7472 26.4426 41.7746 26.4426 44.9124C26.4426 48.2624 30.7976 51.2886 30.7976 54.7056C30.7976 57.8434 26.8893 61.3051 27.6375 66.1179C26.8223 65.9727 26.0071 65.7941 25.2143 65.5931C24.522 61.7182 28.5643 57.9997 28.5643 54.6497C28.5643 51.0429 24.3545 48.3182 24.3545 44.9124C24.3545 41.5066 28.274 40.3341 28.274 36.1801C28.274 32.6626 25.3595 29.7257 25.3595 26.1301C25.2777 23.6046 26.1418 21.1395 27.7826 19.2179C27.9278 19.0281 27.7826 18.8382 27.5481 18.9946L27.403 19.1062C26.243 20.0049 25.3025 21.1554 24.6525 22.4708C24.0026 23.7863 23.6601 25.2323 23.651 26.6996C23.651 30.6637 26.197 32.6514 26.197 36.2359C26.197 39.8204 22.0541 41.4507 22.0541 44.9459C22.0541 48.4411 26.1188 51.2327 26.1188 54.4822C26.1188 57.4414 22.2216 61.1822 22.6683 64.8337C21.9238 64.5583 21.1533 64.2568 20.3568 63.9292C20.3568 60.3224 23.8631 57.2962 23.8631 54.2701C23.8631 50.9201 19.9436 48.1954 19.9436 44.9459C19.9436 41.6964 24.1646 39.7757 24.1646 36.2917C24.1646 32.8077 22.0653 30.8312 22.0653 27.2802C22.0599 24.4674 23.1446 21.7618 25.0915 19.7316C24.6867 19.9468 24.3114 20.2133 23.9748 20.5244C22.9373 21.4522 22.1038 22.5853 21.5271 23.8521C20.9504 25.1188 20.6432 26.4915 20.6248 27.8832C20.6248 31.6687 22.4561 33.3661 22.4561 36.3141C22.4561 39.2621 18.157 41.5847 18.157 44.9459C18.157 48.3071 21.8866 51.1657 21.8866 54.0132C21.8866 56.5704 18.6706 59.9651 18.5366 63.0694C17.8778 62.7344 17.2413 62.3882 16.6048 62.0086C16.8505 59.1834 19.8766 56.9277 19.8766 54.0802C19.8176 53.1485 19.5091 52.2498 18.9833 51.4784C20.2228 55.4091 15.6333 57.7317 15.1866 61.1152C14.3491 60.5569 13.534 59.9986 12.7411 59.3286C13.1288 58.619 13.6569 57.9959 14.2933 57.4972C14.003 57.1511 13.7126 56.7826 13.4446 56.3806C12.7045 56.897 12.0807 57.5627 11.6133 58.3347C10.9321 57.7429 10.2733 57.1176 9.64796 56.4587C10.2202 55.5139 11.0705 54.769 12.0823 54.3259C11.8366 53.8904 11.591 53.4549 11.3676 53.0082C10.2346 53.467 9.25772 54.2424 8.55363 55.2416C7.97296 54.5716 7.41463 53.8792 6.87863 53.1646C7.85013 52.5281 8.65413 50.9312 10.4073 50.8754C10.5525 51.2327 10.7088 51.6012 10.8651 51.9921C10.9467 52.1843 11.0893 52.3444 11.271 52.4473C11.4527 52.5503 11.6633 52.5904 11.8701 52.5616C14.1538 52.316 16.2775 51.272 17.8666 49.6136C16.6048 47.3132 16.2251 46.1519 16.2251 44.9459C16.2251 41.9086 20.5355 39.3626 20.5355 36.4146C20.5355 33.4666 19.0503 31.7804 19.0503 28.5979C19.151 25.8393 20.2092 23.2019 22.043 21.1386C21.6349 21.3973 21.2599 21.7047 20.9263 22.0542C19.0473 23.951 17.9544 26.4878 17.8666 29.1562C17.8666 32.5062 19.1396 33.9467 19.1396 36.4592C19.1396 38.7819 14.2263 42.0426 14.7846 45.1581C13.2671 46.5727 11.2758 47.3692 9.20129 47.3914C9.34646 48.0502 9.53629 48.6979 9.73729 49.3344C7.72729 49.4461 6.80046 51.1657 5.73963 51.7352C5.21107 50.9387 4.71974 50.1235 4.26563 49.2897C6.11929 49.1334 6.69996 46.8219 9.15663 47.0006C9.02263 46.3976 8.92213 45.7722 8.83279 45.1581C5.95179 44.9571 5.29296 47.3914 3.39463 47.4919C2.99263 46.6321 2.62413 45.7611 2.27796 44.8677C4.93563 44.9906 5.82896 42.4334 8.59829 42.4334C8.59829 42.1766 8.59829 41.9197 8.59829 41.6517C8.59829 41.1827 8.59829 40.7249 8.59829 40.2559C5.38229 40.2001 4.39963 42.9917 1.58563 42.7126C1.32879 41.8304 1.10546 40.9259 0.926794 40.0214C4.46663 40.4569 5.75079 37.4754 8.93329 37.4754C9.07316 36.632 9.25956 35.7969 9.49163 34.9741C5.62796 34.8066 4.27679 38.1677 0.558294 37.5424C0.457794 36.7607 0.390794 35.9679 0.346128 35.1751C4.73463 35.6664 6.37613 32.0596 10.3961 32.4951C10.7748 31.5462 11.2111 30.6214 11.7026 29.7257C6.69996 28.8547 5.00263 33.0757 0.334961 32.3946C0.609431 23.7386 4.24093 15.529 10.461 9.5031C16.681 3.47715 25.0016 0.107666 33.6619 0.107666C42.3222 0.107666 50.6427 3.47715 56.8628 9.5031C63.0828 15.529 66.7143 23.7386 66.9888 32.3946C62.3323 33.0311 60.635 28.8547 55.6211 29.7257C56.1172 30.6191 56.5536 31.5442 56.9276 32.4951C60.8583 32.0596 62.5333 35.6664 66.8883 35.1751ZM19.2625 21.2167C17.9641 20.709 16.5623 20.5221 15.1763 20.6718C13.7902 20.8214 12.4607 21.3034 11.3006 22.0766C11.1323 20.9342 10.7375 19.837 10.1392 18.8495C9.54086 17.8619 8.75122 17.0038 7.81663 16.3257C7.7695 16.2862 7.71142 16.2621 7.65018 16.2565C7.58893 16.251 7.52745 16.2643 7.47399 16.2947C7.42052 16.325 7.37762 16.371 7.35104 16.4265C7.32446 16.4819 7.31548 16.5442 7.32529 16.6049C7.71613 21.5964 4.80163 25.9291 1.20596 29.7369C4.90213 30.8536 8.05113 26.0854 12.8528 27.7492C14.5718 25.198 16.7443 22.9839 19.2625 21.2167V21.2167ZM33.6005 18.2017C30.4961 18.2017 27.9055 19.9549 27.2243 22.2106C27.2243 22.3892 27.2243 22.5009 27.4476 22.4116C28.0406 22.16 28.6795 22.0345 29.3236 22.0431C29.8926 22.0102 30.4618 22.1033 30.9906 22.3156C31.5195 22.5279 31.995 22.8543 32.3833 23.2714C32.6912 24.2985 32.6912 25.3933 32.3833 26.4204C31.8585 26.3087 31.6686 25.8956 31.1661 25.8956C30.6636 25.8956 30.2616 26.2641 29.4018 26.2641C28.542 26.2641 28.4415 25.8509 27.8831 25.8509C27.3248 25.8509 27.0903 26.5432 27.0903 27.3137C27.0903 30.7642 30.2616 35.5101 33.634 35.5101C37.0063 35.5101 40.1665 30.7642 40.1665 27.3137C40.1665 26.5432 40.0101 25.8732 39.3178 25.7839C38.907 26.1205 38.3853 26.2917 37.855 26.2641C36.9951 26.2641 36.7383 25.8956 36.247 25.8956C35.7556 25.8956 35.6998 27.1909 34.974 27.2691C34.4892 25.9868 34.4499 24.5787 34.8623 23.2714C35.245 22.8512 35.7155 22.5203 36.2404 22.3022C36.7653 22.0842 37.3318 21.9843 37.8996 22.0096C38.5439 21.999 39.1832 22.1246 39.7756 22.3781C39.9766 22.4674 40.0436 22.3781 39.999 22.1771C39.2843 19.9214 36.6936 18.1682 33.6005 18.1682V18.2017ZM38.525 23.1151C38.1261 23.102 37.7287 23.1694 37.3565 23.3133C36.9843 23.4572 36.6449 23.6746 36.3586 23.9526C36.2863 24.1394 36.2863 24.3464 36.3586 24.5332C37.6986 24.0754 38.8935 24.0531 39.463 24.6896C39.5874 24.5931 39.6882 24.4695 39.7579 24.3283C39.8275 24.1871 39.8641 24.0319 39.865 23.8744C39.8985 23.4501 39.4406 23.1151 38.525 23.1151ZM27.7045 24.6896C28.3521 24.0419 29.7145 24.0754 31.1326 24.6002C31.1996 23.8856 29.9378 23.1151 28.6648 23.1151C27.7491 23.1151 27.2913 23.4277 27.2913 23.8744C27.2926 24.033 27.3306 24.189 27.4022 24.3305C27.4739 24.4719 27.5774 24.5948 27.7045 24.6896V24.6896ZM49.0328 13.0204C46.7366 13.1474 44.5379 13.9909 42.746 15.4324C43.4458 13.4585 44.3953 11.5822 45.5711 9.84908C42.7187 10.0355 40.0246 11.2263 37.9666 13.2102L36.4815 9.32424L39.7756 6.40974L35.309 6.09708L33.6005 1.98774L31.8361 6.09708L27.3695 6.40974L30.7195 9.32424L29.2343 13.2102C27.1801 11.2076 24.4808 10.0004 21.6186 9.80441C22.7945 11.5375 23.7439 13.4138 24.4438 15.3877C22.6572 13.9445 20.4614 13.1006 18.1681 12.9757C19.6454 14.8371 20.8938 16.8691 21.8866 19.0281C21.9087 19.0846 21.9429 19.1356 21.9868 19.1774C22.0308 19.2193 22.0834 19.2509 22.141 19.2701C22.1985 19.2893 22.2596 19.2955 22.3199 19.2885C22.3801 19.2814 22.4381 19.2611 22.4896 19.2291C25.9434 17.5177 29.7459 16.6272 33.6005 16.6272C37.455 16.6272 41.2575 17.5177 44.7113 19.2291C44.762 19.2611 44.8191 19.2813 44.8786 19.2884C44.9381 19.2954 44.9984 19.2891 45.0552 19.2698C45.1119 19.2505 45.1636 19.2188 45.2065 19.177C45.2494 19.1352 45.2824 19.0843 45.3031 19.0281C46.2989 16.8821 47.5512 14.8648 49.0328 13.0204V13.0204ZM54.3593 27.7492C59.161 26.0854 62.31 30.8424 66.0061 29.7369C62.4216 25.9291 59.496 21.5964 59.8868 16.6049C59.8966 16.5442 59.8876 16.4819 59.861 16.4265C59.8345 16.371 59.7916 16.325 59.7381 16.2947C59.6846 16.2643 59.6232 16.251 59.5619 16.2565C59.5007 16.2621 59.4426 16.2862 59.3955 16.3257C58.4622 16.9997 57.6718 17.852 57.0699 18.8334C56.4681 19.8147 56.0667 20.9057 55.8891 22.0431C54.7262 21.2753 53.3954 20.7993 52.0093 20.6555C50.6233 20.5116 49.2231 20.7042 47.9273 21.2167C50.4534 22.9817 52.6337 25.196 54.3593 27.7492V27.7492Z" fill="white"/>
<path d="M55.2083 62.5333C55.7569 62.5245 56.2957 62.6788 56.7564 62.9767C57.2172 63.2746 57.5791 63.7026 57.7962 64.2065C58.0133 64.7104 58.0758 65.2674 57.9758 65.8069C57.8759 66.3463 57.6179 66.8439 57.2347 67.2366C56.8515 67.6292 56.3603 67.8992 55.8234 68.0122C55.2865 68.1253 54.7281 68.0763 54.2191 67.8715C53.7101 67.6667 53.2734 67.3153 52.9645 66.8619C52.6555 66.4086 52.4881 65.8736 52.4836 65.325C52.4792 64.9628 52.5461 64.6032 52.6807 64.2669C52.8152 63.9306 53.0147 63.624 53.2677 63.3648C53.5207 63.1056 53.8223 62.8987 54.1553 62.756C54.4883 62.6134 54.8461 62.5377 55.2083 62.5333V62.5333ZM55.2083 67.67C55.6813 67.6968 56.1514 67.5811 56.558 67.3378C56.9645 67.0945 57.2887 66.7348 57.4886 66.3053C57.6885 65.8758 57.7549 65.3962 57.6792 64.9285C57.6036 64.4608 57.3894 64.0265 57.0643 63.6819C56.7391 63.3373 56.3181 63.0982 55.8556 62.9954C55.3931 62.8927 54.9105 62.9311 54.47 63.1057C54.0296 63.2802 53.6517 63.5829 53.3851 63.9746C53.1186 64.3663 52.9757 64.8289 52.9749 65.3027C52.963 65.6066 53.0115 65.9099 53.1175 66.195C53.2236 66.4801 53.3852 66.7414 53.5929 66.9636C53.8006 67.1858 54.0503 67.3647 54.3276 67.4898C54.6049 67.6148 54.9042 67.6837 55.2083 67.6923V67.67ZM54.1474 63.6835H55.3758C56.1351 63.6835 56.4924 63.985 56.4924 64.6103C56.497 64.7255 56.478 64.8404 56.4367 64.948C56.3954 65.0556 56.3326 65.1537 56.2522 65.2363C56.1717 65.3188 56.0753 65.3841 55.9688 65.4282C55.8622 65.4722 55.7479 65.4941 55.6326 65.4925L56.5706 67H56.0458L55.1636 65.5483H54.6388V67H54.1474V63.6835ZM54.6388 65.124H55.1524C55.5879 65.124 56.0123 65.124 56.0123 64.588C56.0123 64.052 55.6214 64.0855 55.2864 64.0855H54.6388V65.124Z" fill="white"/>
</g>
<defs>
<clipPath id="clip0">
<rect width="67" height="67" fill="white"/>
</clipPath>
</defs>
</svg>
