<svg width="116" height="30" viewBox="0 0 116 30" fill="none" xmlns="http://www.w3.org/2000/svg">
<g clip-path="url(#clip0)">
<path d="M8.8544 24.8335C6.53382 24.8335 4.65462 26.1226 3.7475 27.0363C3.7475 27.0363 1.54002 29.1597 0.0453628 29.8949C-0.0201772 29.9298 -0.0190172 30.0001 0.0720428 30.0001H13.5826C16.2535 30.0001 17.5092 29.1219 19.0943 27.7444C19.0943 27.7444 21.4021 25.6627 22.9849 24.9906C23.1444 24.932 23.1067 24.8335 22.9849 24.8335H8.8544ZM32.0648 24.8335C29.7443 24.8335 27.8668 26.1226 26.9579 27.0363C26.9579 27.0363 24.751 29.1597 23.2564 29.8949C23.1903 29.9298 23.1914 30.0001 23.2831 30.0001H36.8203C39.4906 30.0001 40.7474 29.1219 42.332 27.7444C42.332 27.7444 44.6143 25.6627 46.196 24.9906C46.3555 24.932 46.3439 24.8335 46.2226 24.8335H32.0648ZM55.302 24.8335C52.982 24.8335 51.1033 26.1226 50.1951 27.0363C50.1951 27.0363 47.9876 29.1597 46.4929 29.8949C46.428 29.9298 46.4297 30.0001 46.5208 30.0001H60.058C62.7283 30.0001 63.9573 29.1219 65.543 27.7444C65.543 27.7444 67.8508 25.6627 69.4331 24.9906C69.5932 24.932 69.5816 24.8335 69.4603 24.8335H55.302ZM78.5124 24.8335C76.193 24.8335 74.341 26.1226 73.4322 27.0363C73.4322 27.0363 71.198 29.1597 69.7028 29.8949C69.6378 29.9298 69.6395 30.0001 69.7306 30.0001H83.2672C85.9381 30.0001 87.1944 29.1219 88.7796 27.7444C88.7796 27.7444 91.0891 25.6627 92.6708 24.9906C92.8314 24.932 92.7914 24.8335 92.6708 24.8335H78.5124ZM101.749 24.8335C99.4289 24.8335 97.5492 26.1226 96.642 27.0363C96.642 27.0363 94.4334 29.1597 92.9393 29.8949C92.8732 29.9298 92.8755 30.0001 92.966 30.0001H106.504C109.175 30.0001 110.43 29.1219 112.017 27.7444C112.017 27.7444 114.3 25.6627 115.879 24.9906C116.039 24.932 116.029 24.8335 115.907 24.8335H101.749Z" fill="#3C2008" stroke="white" stroke-width="0.0787" stroke-miterlimit="11.474"/>
<path d="M56.1399 -0.106201C51.2012 -0.106201 46.3855 1.3169 46.3855 6.08272C46.3855 14.3359 61.219 9.97599 61.219 15.0255C61.219 16.6716 58.5887 17.3336 56.4642 17.3336C52.6478 17.3336 50.0175 16.7824 46.6831 14.842V18.9852C49.1689 19.7806 52.5509 20.1657 56.2211 20.1657C61.3443 20.1657 66.1374 18.8816 66.1374 14.0027C66.1374 5.38524 51.3033 9.25712 51.3033 5.03397C51.3033 3.33334 53.6837 2.75239 55.7624 2.75239C59.2603 2.75239 63.0367 3.74597 65.1114 5.61042V1.20488C62.4266 0.382428 58.8619 -0.106201 56.1399 -0.106201ZM82.349 -0.0538481C73.4408 -0.0538481 67.5422 4.10231 67.5422 10.4359C67.5422 16.2488 72.9559 20.1392 81.0521 20.1392C83.6749 20.1392 86.0157 19.8054 88.7522 19.1682V14.2639C86.8179 16.2477 84.5188 17.0437 82.0514 17.0437C77.2699 17.0437 73.9993 14.1524 73.9993 9.98893C73.9993 5.88231 77.39 2.88186 82.1315 2.88186C84.7154 2.88186 86.7866 3.79382 88.4541 5.37398V0.469683C86.7204 0.122914 84.546 -0.0538481 82.349 -0.0538481ZM103.126 -0.0538481C95.45 -0.0538481 90.0218 4.23516 90.0218 10.2783C90.0218 16.2066 94.8961 20.1398 102.154 20.1398C109.865 20.1398 115.177 15.9583 115.177 9.88592C115.179 3.9278 110.348 -0.0538481 103.126 -0.0538481ZM0.802734 0.549057V5.19103C2.47139 3.93568 5.96125 3.46225 9.77301 3.4341V16.1002C9.77301 17.9421 9.60539 18.4668 8.80035 19.4311H16.3392C15.493 18.4668 15.366 17.9421 15.366 16.1002V3.32827C18.6696 3.35642 22.6136 3.93456 24.2823 5.19159V0.54962H0.802734V0.549057ZM26.3094 0.549057C27.0982 1.5128 27.2548 2.06223 27.2548 3.90585V16.1002C27.2548 17.9421 27.1121 18.4955 26.3633 19.4311H44.5747V14.842C42.0761 16.5685 37.3207 16.5747 35.3881 16.546H32.7404V11.2752H34.6857C36.0041 11.2752 38.3827 11.4267 39.7654 11.8264V7.89312C38.4024 8.31814 36 8.44424 34.6857 8.44424H32.7404V3.43636H35.3881C37.7539 3.43636 41.8685 3.91147 43.413 5.16739V0.551871H26.3094V0.549057ZM102.615 2.80474C106.635 2.80474 109.288 6.03318 109.288 10.0165C109.288 13.9999 106.635 17.2289 102.615 17.2289C98.5287 17.2289 95.9123 13.9999 95.9123 10.0165C95.9129 6.03374 98.5287 2.80474 102.615 2.80474Z" fill="#3C2008" stroke="white" stroke-width="0.03" stroke-miterlimit="3.864"/>
</g>
<defs>
<clipPath id="clip0">
<rect width="116" height="30" fill="white"/>
</clipPath>
</defs>
</svg>
