<svg width="55" height="48" viewBox="0 0 55 48" fill="none" xmlns="http://www.w3.org/2000/svg">
<g clip-path="url(#clip0)">
<path d="M17.8739 45.5456C15.8076 45.5456 14.1286 43.8603 14.1286 41.7861C14.1286 39.7119 15.8076 38.0267 17.8739 38.0267C19.9403 38.0267 21.6192 39.7119 21.6192 41.7861C21.6278 43.8603 19.9489 45.5456 17.8739 45.5456ZM24.0731 41.7775C24.0731 38.3378 21.3007 35.5549 17.8739 35.5549C14.4472 35.5549 11.6748 38.3378 11.6748 41.7775C11.6748 45.2172 14.4472 48 17.8739 48C21.3007 48 24.0731 45.2172 24.0731 41.7775Z" fill="#163F3B"/>
<path d="M0.0256322 35.6067H9.97006C9.97006 35.6067 11.9159 35.6585 11.6662 38.0179L4.32197 45.4418H9.86674C9.86674 45.4418 12.5616 45.1393 12.3119 47.9481H2.77219C2.77219 47.9481 0.723034 48.0518 0.671374 45.4418L8.06727 38.0698H2.5225C2.5225 38.0698 -0.275714 38.0698 0.0256322 35.6067Z" fill="#163F3B"/>
<path d="M30.8749 45.5456C28.8085 45.5456 27.1296 43.8603 27.1296 41.7861C27.1296 39.7119 28.8085 38.0267 30.8749 38.0267C32.9413 38.0267 34.6202 39.7119 34.6202 41.7861C34.6202 43.8603 32.9413 45.5456 30.8749 45.5456ZM37.074 41.7775C37.074 38.3378 34.3016 35.5549 30.8749 35.5549C27.4482 35.5549 24.6758 38.3378 24.6758 41.7775C24.6758 45.2172 27.4482 48 30.8749 48C34.3016 48 37.074 45.2172 37.074 41.7775Z" fill="#163F3B"/>
<path d="M37.6597 35.5549V47.9481C37.6597 47.9481 40.0102 48.3975 40.1049 45.8912V40.5761C40.1049 40.5761 40.2082 38.0698 42.6534 38.018C42.6534 38.018 45.0039 38.1217 45.0986 40.4724V45.9431C45.0986 45.9431 45.245 48.1555 47.6472 47.9481V40.5243C47.6472 40.5243 47.6988 37.8624 50.1957 38.018C50.1957 38.018 52.2965 38.1649 52.4429 40.1267V45.2949C52.4429 45.2949 52.2449 48.2592 54.9914 47.9568V40.3341C54.9914 40.3341 54.8451 36.0734 50.4454 35.5635C50.4454 35.5635 47.6472 35.4598 46.3212 37.2661C46.3212 37.2661 43.3939 33.9301 39.8982 36.4623C39.9069 36.4623 39.1061 35.6586 37.6597 35.5549Z" fill="#163F3B"/>
<path d="M27.3277 0C18.8039 0 11.8901 6.93986 11.8901 15.4959C11.8901 24.0519 18.8039 30.9917 27.3277 30.9917C35.8515 30.9917 42.7652 24.0519 42.7652 15.4959C42.7652 6.93986 35.8601 0 27.3277 0ZM31.581 20.9838H20.5861C20.5861 20.9838 17.4435 21.3554 17.3488 18.1059V9.85236H28.7225C28.7225 9.85236 31.4949 10.1289 31.5896 12.3587V20.9838H31.581ZM37.1257 21.0011L32.2267 17.7429V13.197L37.1257 9.85236V21.0011Z" fill="#163F3B"/>
</g>
<defs>
<clipPath id="clip0">
<rect width="55" height="48" fill="white"/>
</clipPath>
</defs>
</svg>
